<?xml version="1.0" encoding="UTF-8"?>
<svg id="Capa_2" xmlns="http://www.w3.org/2000/svg" viewBox="0 0 661.86 135.62">
  <defs>
    <style>
      .cls-1, .cls-2 {
        fill: #e72583;
      }

      .cls-3 {
        fill: #fff;
      }

      .cls-4 {
        fill: #6d4998;
      }

      .cls-2 {
        stroke: #e72583;
        stroke-miterlimit: 10;
      }

      .cls-5 {
        fill: #50b792;
      }
    </style>
  </defs>
  <g id="Capa_2-2" data-name="Capa_2">
    <g>
      <g>
        <rect class="cls-4" x="110.78" y="21.54" width="95" height="96"/>
        <rect class="cls-5" x="202.78" y="4.54" width="65" height="115"/>
        <polygon class="cls-2" points=".56 9.79 15.27 127.54 119.78 118.3 105.07 .54 .56 9.79"/>
        <rect class="cls-4" x="339.78" y="11.54" width="75" height="119" transform="translate(7.95 -33.76) rotate(5.18)"/>
        <rect class="cls-1" x="461.78" y="18.54" width="72" height="108"/>
        <rect class="cls-4" x="528.85" y="14.83" width="51.2" height="118.67" transform="translate(-4.49 51.8) rotate(-5.33)"/>
        <rect class="cls-5" x="573.91" y="15.31" width="87.95" height="99.23"/>
      </g>
      <rect class="cls-5" x="413.78" y="8.54" width="58" height="110"/>
      <path class="cls-3" d="M353.65,30.95l.08-.9,56.08,5.08-.94,10.41-.9-.08.04-.42c-.07-.09-.1-.21-.09-.37-.53-3.12-1.48-5.09-2.86-5.9-1.38-.81-3.56-1.35-6.53-1.62l-28.58-2.59-3.54,39.05,26.61,2.41c2.28.21,3.86.17,4.73-.12.87-.28,1.43-1.04,1.66-2.28l.9.08-.77,8.49-.9-.08c.19-2.05-1.04-3.19-3.69-3.43l-28.77-2.61-3.2,35.34c-.3,3.32.02,5.52.95,6.57.94,1.05,2.65,1.69,5.13,1.92l-.08.9-23.29-2.11.08-.9c2.73.25,4.5-.12,5.32-1.09.82-.98,1.31-2.41,1.48-4.29l6.61-72.88c.27-2.97.04-5.08-.7-6.34-.74-1.26-2.35-2-4.83-2.23Z"/>
      <rect class="cls-1" x="267.85" y="10.65" width="76.93" height="103" transform="translate(-4.45 28.71) rotate(-5.33)"/>
      <path class="cls-3" d="M24.24,107.41V21.16h43.68c28.46,0,36.75,6.31,36.75,30.69v8.66c0,24.38-7.55,30.81-20.29,30.81h-1.49c-12.5,0-19.18-5.94-19.18-17.08h-1.24v33.17H24.24ZM62.48,70.53h1.86c1.49,0,2.1-.87,2.1-6.31v-14.97c0-5.2-.99-6.19-2.6-6.19h-1.36v27.47Z"/>
      <path class="cls-3" d="M116.28,57.13c0-2.17,1.7-3.87,3.87-3.87s3.87,1.7,3.87,3.87-1.7,3.87-3.87,3.87-3.87-1.7-3.87-3.87ZM116.28,64.87c0-2.17,1.7-3.87,3.87-3.87s3.87,1.7,3.87,3.87-1.7,3.87-3.87,3.87-3.87-1.7-3.87-3.87ZM116.28,72.6c0-2.17,1.7-3.87,3.87-3.87s3.87,1.7,3.87,3.87-1.7,3.87-3.87,3.87-3.87-1.7-3.87-3.87ZM116.28,80.34c0-2.17,1.7-3.87,3.87-3.87s3.87,1.7,3.87,3.87-1.7,3.87-3.87,3.87-3.87-1.7-3.87-3.87ZM124.02,41.67c0-2.17,1.7-3.87,3.87-3.87s3.87,1.7,3.87,3.87-1.7,3.87-3.87,3.87-3.87-1.7-3.87-3.87ZM124.02,49.4c0-2.17,1.7-3.87,3.87-3.87s3.87,1.7,3.87,3.87-1.7,3.87-3.87,3.87-3.87-1.7-3.87-3.87ZM124.02,57.13c0-2.17,1.7-3.87,3.87-3.87s3.87,1.7,3.87,3.87-1.7,3.87-3.87,3.87-3.87-1.7-3.87-3.87ZM124.02,64.87c0-2.17,1.7-3.87,3.87-3.87s3.87,1.7,3.87,3.87-1.7,3.87-3.87,3.87-3.87-1.7-3.87-3.87ZM124.02,72.6c0-2.17,1.7-3.87,3.87-3.87s3.87,1.7,3.87,3.87-1.7,3.87-3.87,3.87-3.87-1.7-3.87-3.87ZM124.02,80.34c0-2.17,1.7-3.87,3.87-3.87s3.87,1.7,3.87,3.87-1.7,3.87-3.87,3.87-3.87-1.7-3.87-3.87ZM124.02,88.07c0-2.17,1.7-3.87,3.87-3.87s3.87,1.7,3.87,3.87-1.7,3.87-3.87,3.87-3.87-1.7-3.87-3.87ZM124.02,95.81c0-2.17,1.7-3.87,3.87-3.87s3.87,1.7,3.87,3.87-1.7,3.87-3.87,3.87-3.87-1.7-3.87-3.87ZM131.75,41.67c0-2.17,1.7-3.87,3.87-3.87s3.87,1.7,3.87,3.87-1.7,3.87-3.87,3.87-3.87-1.7-3.87-3.87ZM131.75,49.4c0-2.17,1.7-3.87,3.87-3.87s3.87,1.7,3.87,3.87-1.7,3.87-3.87,3.87-3.87-1.7-3.87-3.87ZM131.75,57.13c0-2.17,1.7-3.87,3.87-3.87s3.87,1.7,3.87,3.87-1.7,3.87-3.87,3.87-3.87-1.7-3.87-3.87ZM131.75,64.87c0-2.17,1.7-3.87,3.87-3.87s3.87,1.7,3.87,3.87-1.7,3.87-3.87,3.87-3.87-1.7-3.87-3.87ZM131.75,72.6c0-2.17,1.7-3.87,3.87-3.87s3.87,1.7,3.87,3.87-1.7,3.87-3.87,3.87-3.87-1.7-3.87-3.87ZM131.75,80.34c0-2.17,1.7-3.87,3.87-3.87s3.87,1.7,3.87,3.87-1.7,3.87-3.87,3.87-3.87-1.7-3.87-3.87ZM131.75,88.07c0-2.17,1.7-3.87,3.87-3.87s3.87,1.7,3.87,3.87-1.7,3.87-3.87,3.87-3.87-1.7-3.87-3.87ZM131.75,95.81c0-2.17,1.7-3.87,3.87-3.87s3.87,1.7,3.87,3.87-1.7,3.87-3.87,3.87-3.87-1.7-3.87-3.87ZM139.49,33.93c0-2.17,1.7-3.87,3.87-3.87s3.87,1.7,3.87,3.87-1.7,3.87-3.87,3.87-3.87-1.7-3.87-3.87ZM139.49,41.67c0-2.17,1.7-3.87,3.87-3.87s3.87,1.7,3.87,3.87-1.7,3.87-3.87,3.87-3.87-1.7-3.87-3.87ZM139.49,49.4c0-2.17,1.7-3.87,3.87-3.87s3.87,1.7,3.87,3.87-1.7,3.87-3.87,3.87-3.87-1.7-3.87-3.87ZM139.49,88.07c0-2.17,1.7-3.87,3.87-3.87s3.87,1.7,3.87,3.87-1.7,3.87-3.87,3.87-3.87-1.7-3.87-3.87ZM139.49,95.81c0-2.17,1.7-3.87,3.87-3.87s3.87,1.7,3.87,3.87-1.7,3.87-3.87,3.87-3.87-1.7-3.87-3.87ZM139.49,103.54c0-2.17,1.7-3.87,3.87-3.87s3.87,1.7,3.87,3.87-1.7,3.87-3.87,3.87-3.87-1.7-3.87-3.87ZM147.22,33.93c0-2.17,1.7-3.87,3.87-3.87s3.87,1.7,3.87,3.87-1.7,3.87-3.87,3.87-3.87-1.7-3.87-3.87ZM147.22,41.67c0-2.17,1.7-3.87,3.87-3.87s3.87,1.7,3.87,3.87-1.7,3.87-3.87,3.87-3.87-1.7-3.87-3.87ZM147.22,95.81c0-2.17,1.7-3.87,3.87-3.87s3.87,1.7,3.87,3.87-1.7,3.87-3.87,3.87-3.87-1.7-3.87-3.87ZM147.22,103.54c0-2.17,1.7-3.87,3.87-3.87s3.87,1.7,3.87,3.87-1.7,3.87-3.87,3.87-3.87-1.7-3.87-3.87ZM154.96,33.93c0-2.17,1.7-3.87,3.87-3.87s3.87,1.7,3.87,3.87-1.7,3.87-3.87,3.87-3.87-1.7-3.87-3.87ZM154.96,41.67c0-2.17,1.7-3.87,3.87-3.87s3.87,1.7,3.87,3.87-1.7,3.87-3.87,3.87-3.87-1.7-3.87-3.87ZM154.96,95.81c0-2.17,1.7-3.87,3.87-3.87s3.87,1.7,3.87,3.87-1.7,3.87-3.87,3.87-3.87-1.7-3.87-3.87ZM154.96,103.54c0-2.17,1.7-3.87,3.87-3.87s3.87,1.7,3.87,3.87-1.7,3.87-3.87,3.87-3.87-1.7-3.87-3.87ZM162.69,33.93c0-2.17,1.7-3.87,3.87-3.87s3.87,1.7,3.87,3.87-1.7,3.87-3.87,3.87-3.87-1.7-3.87-3.87ZM162.69,41.67c0-2.17,1.7-3.87,3.87-3.87s3.87,1.7,3.87,3.87-1.7,3.87-3.87,3.87-3.87-1.7-3.87-3.87ZM162.69,95.81c0-2.17,1.7-3.87,3.87-3.87s3.87,1.7,3.87,3.87-1.7,3.87-3.87,3.87-3.87-1.7-3.87-3.87ZM162.69,103.54c0-2.17,1.7-3.87,3.87-3.87s3.87,1.7,3.87,3.87-1.7,3.87-3.87,3.87-3.87-1.7-3.87-3.87ZM170.42,33.93c0-2.17,1.7-3.87,3.87-3.87s3.87,1.7,3.87,3.87-1.7,3.87-3.87,3.87-3.87-1.7-3.87-3.87ZM170.42,41.67c0-2.17,1.7-3.87,3.87-3.87s3.87,1.7,3.87,3.87-1.7,3.87-3.87,3.87-3.87-1.7-3.87-3.87ZM170.42,49.4c0-2.17,1.7-3.87,3.87-3.87s3.87,1.7,3.87,3.87-1.7,3.87-3.87,3.87-3.87-1.7-3.87-3.87ZM170.42,88.07c0-2.17,1.7-3.87,3.87-3.87s3.87,1.7,3.87,3.87-1.7,3.87-3.87,3.87-3.87-1.7-3.87-3.87ZM170.42,95.81c0-2.17,1.7-3.87,3.87-3.87s3.87,1.7,3.87,3.87-1.7,3.87-3.87,3.87-3.87-1.7-3.87-3.87ZM170.42,103.54c0-2.17,1.7-3.87,3.87-3.87s3.87,1.7,3.87,3.87-1.7,3.87-3.87,3.87-3.87-1.7-3.87-3.87ZM178.16,41.67c0-2.17,1.7-3.87,3.87-3.87s3.87,1.7,3.87,3.87-1.7,3.87-3.87,3.87-3.87-1.7-3.87-3.87ZM178.16,49.4c0-2.17,1.7-3.87,3.87-3.87s3.87,1.7,3.87,3.87-1.7,3.87-3.87,3.87-3.87-1.7-3.87-3.87ZM178.16,57.13c0-2.17,1.7-3.87,3.87-3.87s3.87,1.7,3.87,3.87-1.7,3.87-3.87,3.87-3.87-1.7-3.87-3.87ZM178.16,64.87c0-2.17,1.7-3.87,3.87-3.87s3.87,1.7,3.87,3.87-1.7,3.87-3.87,3.87-3.87-1.7-3.87-3.87ZM178.16,72.6c0-2.17,1.7-3.87,3.87-3.87s3.87,1.7,3.87,3.87-1.7,3.87-3.87,3.87-3.87-1.7-3.87-3.87ZM178.16,80.34c0-2.17,1.7-3.87,3.87-3.87s3.87,1.7,3.87,3.87-1.7,3.87-3.87,3.87-3.87-1.7-3.87-3.87ZM178.16,88.07c0-2.17,1.7-3.87,3.87-3.87s3.87,1.7,3.87,3.87-1.7,3.87-3.87,3.87-3.87-1.7-3.87-3.87ZM178.16,95.81c0-2.17,1.7-3.87,3.87-3.87s3.87,1.7,3.87,3.87-1.7,3.87-3.87,3.87-3.87-1.7-3.87-3.87ZM185.89,41.67c0-2.17,1.7-3.87,3.87-3.87s3.87,1.7,3.87,3.87-1.7,3.87-3.87,3.87-3.87-1.7-3.87-3.87ZM185.89,49.4c0-2.17,1.7-3.87,3.87-3.87s3.87,1.7,3.87,3.87-1.7,3.87-3.87,3.87-3.87-1.7-3.87-3.87ZM185.89,57.13c0-2.17,1.7-3.87,3.87-3.87s3.87,1.7,3.87,3.87-1.7,3.87-3.87,3.87-3.87-1.7-3.87-3.87ZM185.89,64.87c0-2.17,1.7-3.87,3.87-3.87s3.87,1.7,3.87,3.87-1.7,3.87-3.87,3.87-3.87-1.7-3.87-3.87ZM185.89,72.6c0-2.17,1.7-3.87,3.87-3.87s3.87,1.7,3.87,3.87-1.7,3.87-3.87,3.87-3.87-1.7-3.87-3.87ZM185.89,80.34c0-2.17,1.7-3.87,3.87-3.87s3.87,1.7,3.87,3.87-1.7,3.87-3.87,3.87-3.87-1.7-3.87-3.87ZM185.89,88.07c0-2.17,1.7-3.87,3.87-3.87s3.87,1.7,3.87,3.87-1.7,3.87-3.87,3.87-3.87-1.7-3.87-3.87ZM185.89,95.81c0-2.17,1.7-3.87,3.87-3.87s3.87,1.7,3.87,3.87-1.7,3.87-3.87,3.87-3.87-1.7-3.87-3.87ZM193.63,57.13c0-2.17,1.7-3.87,3.87-3.87s3.87,1.7,3.87,3.87-1.7,3.87-3.87,3.87-3.87-1.7-3.87-3.87ZM193.63,64.87c0-2.17,1.7-3.87,3.87-3.87s3.87,1.7,3.87,3.87-1.7,3.87-3.87,3.87-3.87-1.7-3.87-3.87ZM193.63,72.6c0-2.17,1.7-3.87,3.87-3.87s3.87,1.7,3.87,3.87-1.7,3.87-3.87,3.87-3.87-1.7-3.87-3.87ZM193.63,80.34c0-2.17,1.7-3.87,3.87-3.87s3.87,1.7,3.87,3.87-1.7,3.87-3.87,3.87-3.87-1.7-3.87-3.87Z"/>
      <path class="cls-3" d="M260.32,105.55l.12.25-.25.62-.62.74-.74.37h-2.1l-1.36.25-.5-.25-2.97.25-.25-.12-2.47-.12-.25.12h-1.73l-1.24-.25-1.24-.62-.5-.87-.5-1.36-.12-1.24-.87-2.6-.5-2.23-1.36-4.58.37-.25-.37-.25-.37-.87-.62-2.85-.37-.87-.5-2.1-.62-1.73-.12-1.61-.5-1.24-.87-3.09.12-.62-.99-1.86-.12-1.86-.99-2.72-1.24-.87-.62-.12-1.36.37-.62,1.36-.12,2.97.12.25v3.46l-.12.25v5.44l.12.12v5.45l-.12.25v4.21l.12.12v8.66l.12.25v1.49l-.62,1.11-.5.25-.12.25-.49.25-2.35.12-.25-.12h-1.73l-.25.12h-2.72l-.12-.12.12-.49-.12-.25-.49.12-.74.74h-2.1l-.25-.12h-1.98l-.99-.37-.74-1.24v-21.04l-.12-.25-.12-2.48.87.25-.74-1.86v-.87l.25.12.62-.12.37-.25-.12-.25-.37-.12-.74.12.25-1.24-.25-1.73v-1.24l.12-.25v-1.86l-.25-.25v-3.59l.12-.25v-4.33l.12-.25v-2.47l-.12-.25v-1.73l.62-1.24-.5-.62.12-.99v-4.83l-.12-.25v-2.6l-.12-.25v-4.21l.25-1.11-.37-2.23.49-1.36-.25-1.24v-10.4l-.12-.25v-3.46l.12-.25v-4.08l.74-1.98.99-.49h3.59l.25-.12h2.72l.25.12h1.73l.25.12h1.36l.5-.25.5.12h5.82l.74.25.99-.25,2.72.12,2.1-.25,1.24.25.25.25h.25l.37-.37,1.86.49,4.33,1.24.99.74,1.36.37,2.35,1.61,1.24,1.61.87.87,1.98,3.22,1.24,2.97.99,4.95.25,2.23v3.84l.25.5-.12.49v1.98l.12.25v2.97l-.12.25v3.34l-.25,1.98-.37.62v1.73l-.87,2.23-.5,2.23-.49.62-.62,1.36-2.72,3.09-3.34,2.35h-.74l.12.25-.12,1.98.87,2.72,1.36,4.58,1.36,4.33,1.36,4.46,1.11,3.96,1.11,4.08,1.11,3.09.5,2.6.49,1.11.12.99.62.87.5,2.23v.25ZM215.9,72.76h.37v-.25l-.37-.25-.12.25.12.25ZM216.39,34.77l.25-.25-.25-.12-.25.25.25.12ZM216.76,81.67l.25-.12.12-.5.12-.25.37-.12.37.12.25-.25-.37-.62-.5-.12-.12.74-.49.12-.62.74.62.25ZM216.52,39.97l-.12-.25v.37l.12-.12ZM216.76,59.52l.25-.12v-.25l-.37-.12-.12.5h.25ZM216.89,66.82l-.12-.12-.12.25.25-.12ZM216.89,51.23l.5-.12.12-.5h-.62l-.12.25.12.37ZM217.01,63.48l.37-.25-.12-.74-.49-.25.12.25-.12.99h.25ZM217.01,84.02l-.12-.5-.12.25.25.25ZM217.51,73.5v-.25h-.25v.37l.25-.12ZM217.88,27.84l-.25-.37v.25l.25.12ZM217.88,68.68v-.37l-.25.12.25.25ZM218.12,53.95l.12-.25-.12-.25h-.25l.25.5ZM218.5,63.73l.12-.62-.5.25-.25.37h.62ZM218.25,84.64l-.12-.25-.25-.12v.37h.37ZM218.5,64.59l-.25-.25-.12.12-.12.25.5-.12ZM218.62,66.33l-.5-.5v.5h.5ZM218.5,56.05l.62-.12v.62l-.37.62h.5l.74-.74-.5-.5.25-.25-.12-.5-.99-.12-.25.37.12.62ZM218.62,58.65l.25-.25-.37.12.12.12ZM218.99,71.28l.12-.37v-.37h-.62l.5.74ZM218.87,76.72l.37.12.12-.5-.12-.87-.12-.37-.62.37.37,1.24ZM218.87,67.81l.25-.25v-.25h-.25l-.25.25v.25h.25ZM218.74,72.39l.37.25.74-.25.25-.37.74.12.62-2.6-1.24-1.24-.37.12-.12.74.5.99.37.25v.37l-.99.74h-.5l-.5.37.12.5ZM218.74,82.29l.25-.12h-.37v.25l.12-.12ZM218.99,62.61l.12-.25-.12-.5h-.25v.74h.25ZM219.24,69.3l.37-.37-.5-.25-.25.12-.12.37.5.12ZM219.11,85.26l.12-.25v-.25h-.25l-.12.5h.25ZM219.49,53.7l.37-.5v-.25h-.25l-.5.25-.12.37.49.12ZM219.24,74.37l.62-.12.25-.37h-.62l-.49.37.25.12ZM219.61,80.93l.25-.37v-.12l-.12-.12-.5.12-.12.37.5.12ZM219.49,38.73l.37-.99-.12-.25h-.37l.12,1.24ZM219.61,61.38l.74-.62,1.24.25.25-.12.25-.5-.99.12-.12-.37.37-.62v-1.36l.12-.25.62.12v-.25l-.37-.5.12-.25.74-.5.12.37.5-.12.62-.5-.12-.99h-.25l-.12.87-.37.25-.37-.5-1.11-.62-.12.25.25.49-1.11.99-.5,1.11.62.25.25,1.61-.87-.37.37.37-.99.99v.37h.25ZM219.61,54.82l1.24-.5.12-.25h-.25l-1.24.37.12.37ZM219.73,65.95l.25-.37-.25-.25-.25.25.25.37ZM219.73,47.02l.37-.37h-.5l.12.37ZM219.98,67.69l.37-.25.99.25h.37l.12.12v.62l.87-.74h.74v-.37l-.25-.12v-.25h1.24l.25-.25v-.25l-2.35-.25.12.74-.25.37-1.86.12.5-.25.25-.37-.5.12-.87-.12-.12.25v.25l.37.37ZM219.86,44.67l.25-.12v-.25l-.37.12.12.25ZM220.23,51.72l.62-.5v-.62l-.5-.5v.25l-.37.74v.62h.25ZM220.23,52.59l.12-.37-.37.37h.25ZM220.72,30.81l-.5.74.12.62.87.5.25.74v1.11l.5-.12.25-.37-.62-.5.25-.12.37-.87-.87-.37-.12-.62.87-.99v-.37l-.25-.12-.37.74-1.36-1.24.62,1.24ZM220.35,56.18l.12-.25-.37.37.25-.12ZM220.6,73.01h.37l.5-.25.5-.99-.5-.12-.12.49-.5.37h-.5l-.25.25.5.25ZM220.48,49.62l.74-.25.12-.5-.25-.12h-.25l-.5.37.12.5ZM220.85,74.37v-.25l-.25-.12-.25.25.5.12ZM220.48,75.73l.62-.12.25-.37.62-.25-1.61.37v.25l.12.12ZM220.6,95.16l.37-.37-.12-.25-.5.5.25.12ZM220.6,53.21l.25.37.62.12.25-.25-.62-.62-.62.12.12.25ZM220.97,62.74l-.12-.5h-.25l-.12.25v.37l.5-.12ZM220.72,107.04l.25.12.25-.25-.74-.37.25.5ZM220.97,38.73h-.25l-.12.25.37-.25ZM220.85,55.56l-.25-.12v.25l.25-.12ZM220.85,76.47l.12-.12-.25-.12-.12.37.25-.12ZM221.22,78.45l-.12-.25-.25.12v.25l.37-.12ZM221.22,73.63v-.25h-.25v.25h.25ZM221.71,81.18l-.25-.49-.5-.12v.62h.74ZM221.34,46.28l.12-.37-.37-.12v.5h.25ZM221.22,79.57l1.36.5-.87-.99-.62.12v.25l.12.12ZM221.47,85.88v-.25l-.25-.12-.12.37h.37ZM221.47,37l-.12-.12-.12.25.25-.12ZM222.58,44.17l-.37-.25-.5-.25h-.25l-.25.25v.25h1.36ZM221.47,47.02l-.25-.12v.25l.25-.12ZM221.34,54.94h.25v-.12h-.37l.12.12ZM221.47,61.99l.12-.25-.25-.12-.12.25.25.12ZM221.47,65.21l-.12-.25-.12-.12v.37h.25ZM221.47,90.46h.25l.12-.5-.25-.12-.37.5.25.12ZM221.71,38.36v-.37l-.25-.12.25.5ZM221.71,50.36l.12-.12v-.25l-.25-.12-.12.12.25.37ZM222.08,51.23l-.12-.25-.5-.12v.25l.62.12ZM221.96,47.52l.25-.5h-.25l-.25.62.25-.12ZM221.96,48.88l.62.37.25-.12-.37-.5-.74-.25.25.5ZM221.84,63.11h.25l.25-.25v-.62l-.25-.37h-.25v.5l-.12.25.12.49ZM222.46,69.54l.12-.25-.12-.25-.5.12v.25l.5.12ZM222.21,70.41l.12-.25-.37-.12v.25l.25.12ZM222.08,77.34l.25-.12-.12-.25h-.25l.12.37ZM222.46,32.29v-.37h-.37l.37.37ZM222.33,40.34l.12-.12-.12-.12-.12.12.12.12ZM222.46,42.32l.49-.37-.25-.12-.5.12v.25l.25.12ZM222.58,65.09l-.25-.25v.25h.25ZM222.7,72.39l.74-.12.37.74-.12.99h.5l.12-.87.25-.12.74.25.12-1.36-.25-.25-.62.62-.5.12-.12-.25v-.25l1.11-.62.37-.37v-.5l-.37-.37-.5-.12-.87,1.36-.74.25-.62.74.37.12ZM223.45,76.97l.37-.37-.62-.37.25-.5-.25-.25-.87.37,1.11,1.11ZM222.46,86.62h.25l.37-.37-.25-.12h-.5l.12.5ZM222.7,88.72h.25l.62-1.48-.87.87h-.37v.12l.37.5ZM223.07,24l.12-.25-.12-.12h-.5l-.12.25.62.12ZM222.7,55.56l.25-.12-.12-.37-.37.12.25.37ZM222.7,57.91h.74l.25.25.12.74.37-.25v-.87l-.12-.12h-.12l-.37-.25h-1.11l.25.5ZM222.58,60.14l.5.12-.37-1.11-.12.25-.12.5.12.25ZM223.94,43.8h.37l.25-.25-.74-.25-.5-.74-.12-.12-.37.37-.12.49,1.24.5ZM222.95,64.59l.37-.25v-.25l-.62.12v.25l.25.12ZM223.57,31.3l.62.25.37-.25-.74-.25-.12-.25-.5-.25h-.37l.74.74ZM223.45,45.78v-.74l.12.12.5-.12.25-.37-.99-.12-.5.62v.25l.62.37ZM223.07,82.66l.62-.62.12-.62-.25-.12v-.25l.87-.5h.62l.12.25-.62.87v.5l.62-.37,1.11.12.25.37-.12.12h-1.11l.74.49.74.12-.12.62h.25l.25-.25-.12-1.86h-.37l-.5-.62-.62-.37v-.5l1.24-1.98h-.25l-.74-.25.25.74-.62.5-.5-.25-.12.25.37.5-.12.25-1.61.74-.5.87.25.25-.37.99h.25ZM223.07,62.98l.62.37,1.48.25-.25-.62-.74-.87h-.5l-.74.74.12.12ZM223.32,75.36l.12-.25-.37-.37-.12.25.37.37ZM223.32,78.82v-.37l-.37-.25v.37l.37.25ZM223.32,47.52l.74.99h1.11l.25-.12.37-.25v-.49l-.62-.12-.62.12-.37.25-.25-1.11-.74.12-.12.5.25.12ZM223.82,49.5l.12-.12-.25-.25h-.25l-.37.37h.74ZM223.32,93.67v-.62l-.25-.37v.87l.25.12ZM223.57,90.09l.5-.12.37-.62-.12-.25-.87.62-.12.25.25.12ZM223.69,35.88v-.25h-.25v.25h.25ZM224.06,60.01l.5.12.62-.74-.25-.12-.12-.25-.5-.12-.25.37-.5-.25-.12.5.62.49ZM223.69,65.21v-.25l-.25.12.25.12ZM223.94,39.1l.25-.12v-.25l-.37-.25-.25.12v.25l.37.25ZM223.94,29.94h.25l-.25-.25-.12.12.12.12ZM224.06,51.35h.25v-.25l-.37-.37-.12.25.25.37ZM224.31,65.95l.12-.37h-.5l-.12.37h.49ZM224.19,88.48l.62-.62-.25-.5h-.25l-.25.12-.25.87.37.12ZM224.31,105.68l.12-.5h-.37l-.25.74.49-.25ZM224.19,34.89l.5-.37.25-.74-.37-.25v.25l-.62.99.25.12ZM224.06,61.87l.5.25.12-.25.74-.74-1.11-.25-.37.62.12.37ZM224.19,91.32l.25-.12.12-.37-.25-.12-.37.25v.25l.25.12ZM224.31,50.36l.12-.12-.25-.12-.12.12.25.12ZM224.44,56.92h-.37v.12l.37-.12ZM224.19,69.42l.25.25.12-.37-.5-.12.12.25ZM224.31,78.58l.5-.12-.12-.12-.12-1.36-.25-.25-.25.49v1.11l.25.25ZM224.44,83.28l.25-.12v-.25l-.37-.25-.25.12v.25l.37.25ZM224.68,29.94v-.25h-.25l-.12.25h.37ZM225.43,46.15l.74-.37h.62l-.87-.62v.25l-.37.25-.87.12-.37.25,1.11.12ZM225.05,33.16h.25l.12-.25-.25-.62.12-.25.37-.25.12-.37h-.5l-.62.5-.25.5.62.74ZM224.56,52.59l1.11.12.12-.25-.25-.37-.74-.12-.37.25.12.37ZM224.68,74.74h.37l-.62-.37.25.37ZM225.55,58.53l-.37-.37.12-.25-.12-.62-.25.12-.37,1.11h.99ZM224.93,92.81h1.11l.5-.25.25-.37-.74-.12-.49.25-.62-.37-.25.12-.12.5.37.25ZM224.93,26.85l.5-.87h.5v-.25l-.12-.25h-.37l-.37.25-.37.74.25.37ZM224.93,27.96l.25.12.5-.12v-.25l-.74-.12-.25.37h.25ZM225.05,35.88l.25-.12v-.25h-.5l-.12.25.37.12ZM224.93,54.94l.74.12.5-.25-.12-.25.5-.5.25-.49-.37-.37-.37.12-.49.87-.87-.12v.5l.25.37ZM225.43,42.94l.37-.12.25-.87-.12-.25h-.37l-.62.62-.12.37.62.25ZM225.05,53.21l-.25-.25v.37l.25-.12ZM225.55,30.56l-.12-.25-.12-.49h-.25l-.12.25.62.49ZM225.05,56.43l.62-.25.25-.5-.99.25v.37l.12.12ZM225.18,40.96h.25l-.12-.37-.25-.12v.25l.12.25ZM225.3,45.04l.12-.12.37-.25-.37-.25-.25.37.12.25ZM225.67,65.34l-.12-1.11h-.25l-.12,1.61.5-.5ZM225.55,87.98l.12-.37-.37-.12-.12.37.37.12ZM225.92,66.7l-.12-.12-.5.12v.25l.62-.25ZM225.67,73.87v-.25h-.37l.37.25ZM225.55,62.49l.25.12.12-.25-.12-.12-.37.12.12.12ZM225.55,84.39l.49-.25-.12-.74h-.25l-.25.5.12.5ZM225.55,91.08l-.12-.25v.25h.12ZM227.16,47.02v-.25l-.25-.25h-.5l-.74.49v.5l1.49-.5ZM225.8,68.92l.12-.25v-.37l-.25-.12v.62l.12.12ZM225.92,86.62l.12-.5-.25.12-.12.25.25.12ZM225.92,106.67l.37-.12-.12-.37-.5-.12v.5l.25.12ZM226.04,58.16l-.12-.12-.12.25.25-.12ZM227.03,66.33l-.25.99.12.37.74-.12-.37-.62.25-.12.37-.37.74.37h.12l.25-.25-1.11-.12.12-.12.12-.5-1.49-.25-.5.12-.37.37,1.24.25ZM226.17,30.56l.12-.12-.25-.25v.25l.12.12ZM226.29,64.1l.5-.12v-.25l-.12-.25h-.37l-.25.49.25.12ZM226.42,38.98l.37-.37h-.5l-.12.25.25.12ZM226.42,36.5l.62-.37v-.37l-.25.12-.5.37.12.25ZM226.42,57.54l.37.37.62-.12.25-.5-.12-.5-.5.37-.74-.25v.25l.12.37ZM226.42,77.46l.25-.12.12-.37h-.5l.12.5ZM227.03,55.19l.37-.37-.87-.12-.12.12v.25l.62.12ZM227.65,28.58l.12-.12.74-.37.25-.37-.99-.62-.12.37-.74.25.12.12-.5.37,1.11.37ZM226.66,41.08l.37-.5h-.25l-.25.25.12.25ZM227.03,72.64h-.37v.12l.37-.12ZM227.03,49.12v-.25l-.25-.12v.37h.25ZM227.41,61.25l.5.12-.12-.49-.37-.37.37-.12.12-.5-1.11.25v.25l.62.87ZM226.91,84.39h.25v-.25l-.25-.12-.12.25.12.12ZM226.91,93.8l.49-.12-.12-.25h-.5l.12.37ZM227.03,94.79v-.49l-.25-.25v.74h.25ZM227.41,64.72l-.12-.12-.37.12h.49ZM227.28,89.71l.12-.12-.25-.25-.12.25.25.12ZM227.41,62.61h.25l.12-.25-.37-.37-.25.12.25.5ZM227.78,25.24l.25-.5.5-.12v-.25l-.62.25-.37.5v.25l.25-.12ZM227.9,34.4l.12-.12-.37-.37v.25l.25.25ZM228.77,30.07l.37-.5-.25-.25h-.25l-.12.5.25.25ZM228.77,74.12l.12-.25h-.25l-.12.37.25-.12ZM229.01,65.95l.12-.25.5-.62-.5-.25-.37.37-.12.5.37.25ZM229.01,51.35l.25-.12v-.25l-.37.12.12.25ZM229.39,28.33l.12-.49h-.25l-.25.25v.49l.37-.25ZM229.14,63.85h.5v-.25l-.25-.12-.37.12.12.25ZM229.14,84.02l.25-.12v-.25l-.37.25.12.12ZM230.13,27.96l.12-1.24-.25-.25-.25.5-.12.49.5.5ZM230.25,45.29l.25-.25-.25-.12-.12.25.12.12ZM230.87,58.9l.12-.12-.25-.37h-.25l-.12.49h.49ZM230.99,50.24l.25.25v3.46l-.12.25v1.98l.5,1.11,1.24.25,2.23.12.99-.37.12.12,2.97-.12.74-.37.37-.37,1.36-.62,1.11-1.86.37-1.24.12-1.98.25-.5v-1.73l.25-2.23-.12-.25v-3.71l-.12-.25-.12-2.47-.12-.25v-1.48l-.37-1.36-1.24-2.72-.99-.87-1.73-.74h-.87l-.5-.25-.87.25-.74-.37h-2.47l-1.98.62-.25.37v1.86l-.12.25v2.48l-.12.25v3.71l.12.25v1.24l.12.25v.99l-.25,1.11.25,1.49-.37,1.61.12,1.86ZM231.37,21.53l-.25-.25-.12.37.37-.12ZM231.74,64.96h.25l.12-.25-.37-.37-.12.12.12.5ZM232.6,60.39l.12-.25-.12-.12h-.5v.25l.5.12ZM232.6,29.45l-.12-.25-.12.25v.12l.25-.12ZM232.6,63.11l.25.12.25-1.36h-.25l-.12.74-.25.37.12.12ZM233.1,64.84l.25-.25-.25-.12-.25.25.25.12ZM233.47,65.83l.49-.37.12-.5-.25-.12-.5.37-.12.5.25.12ZM233.47,69.54h.25l.12-.37-.5.12.12.25ZM234.58,61.13l.12-.25-.37-.37-.12.25.37.37ZM235.08,62.86l-.12-.25h-.25v.25h.37ZM235.45,65.71l.25-.37-.12-.37-.37.25-.12.5h.37ZM236.07,60.88l.12-.25-.37.12.25.12ZM236.32,66.33l.37-.5h-.25l-.25.12-.12.37h.25ZM236.69,67.44l.12-.74h-.25l-.25.37-.12.62.5-.25ZM236.56,74.74l-.25-.12v.25l.25-.12ZM237.31,61.75l-.12-.25-.25.12v.25l.37-.12ZM237.31,65.58l.12-.12h-.25l-.12.25.25-.12ZM237.8,68.31l.5.12.37-.37-.12-.25-.74.12-.12.12.12.25ZM238.17,63.6l.12-.25-.12-.5-.37.37.37.37ZM238.3,66.57l-.25-.25-.12.37.37-.12ZM239.16,63.11l.12-.12-.12-.25-.25.5.25-.12ZM239.41,67.93l.5.12.12-.25-.25-1.11h-.25l-.37.37v.5l.25.37ZM239.41,70.66h.37l.37-.37v-.25l-.87.12-.12.25.25.25ZM239.53,65.09l.37-.12-.12-.25h-.37l.12.37ZM240.03,61.38l.12-.25-.25-.12-.12.25.25.12ZM239.9,64.22h.25v-.49h-.25l-.12.12.12.37ZM240.15,80.19h.37l.12-.62-.12-.12-.5.5.12.25ZM240.52,74.62l.25-.25v-.25l-.25-.12-.25.12-.12.5h.37ZM240.65,86.87v-.37l.5-.5v-.25l-.74.25v.74l.25.12ZM240.77,67.07l-.12-.12-.12.25.25-.12ZM241.14,68.92l.74-.37.12-.74.12-.25.99-.62-1.86.62.12.74-.74.12v.37l.5.12ZM240.89,78.7l.12-.12.87-1.48v-.37l-.25-.12-.25.74-.62.99.12.37ZM241.02,62.74h.25v-.25l-.25-.12-.12.12.12.25ZM241.27,70.78l.12-.25-.25-.25-.25.12.37.37ZM241.39,64.84l.37-.37.12-1.11h-.12l-.37.37-.25.74.25.37ZM241.39,69.67h.25l.12-.5h-.5v.25l.12.25ZM241.39,79.2h.37l.12-.5-.62.12.12.37ZM241.64,90.21l-.12-.12-.12.25.25-.12ZM242.01,92.19l-.37-.25-.12.5.5-.25ZM241.88,81.3l.37-.25.12-.74-.37-.25-.25.25-.12.99h.25ZM242.01,28.33v-.25l-.25-.12v.25l.25.12ZM242.26,62.98l.12-.25-.62-.25v.25l.5.25ZM242.26,86.25l.12-.25-.12-.25,1.11-.37.12-.25-.74-.12-.87.62v.25l.37.37ZM242.75,60.26l.12-.25-.25-.12-.12.25.25.12ZM242.87,70.29l.12-.5-.25-.12-.12.62h.25ZM243,76.47l.25-.37-.49-.5-.12.25v.62h.37ZM242.87,79.94l.5.25.62-.12.12-.5-.25-.12-.37.12-.74-.12v.25l.12.25ZM243,80.56l-.12-.12-.12.25.25-.12ZM243.12,61.38v-.25l-.25-.12v.25l.25.12ZM243.25,86.25l2.48.62v-.49l-.25-.5v-.37l.5-.25.12-.25-.12-.5.12-.5-.25-.12-.49.12v.87l-1.61.99h-.37l-.37-.12-.12.12.37.37ZM244.11,62.86l.12-.25v-.25l-.37-.37-.87-.12,1.11.99ZM243.49,82.91l-.25-.25-.12.37.37-.12ZM243.62,77.22l-.12-.12-.12.25.25-.12ZM243.62,64.59h.12l-.25-.25.12.25ZM243.74,73.63l-.12-.12-.12.25.25-.12ZM244.61,89.47l-.12-.62.37-.37.25-.5v-.5l-.25-.25-.12.25-.74.5-.37.74.99.74ZM244.48,69.3l.37-.25v-.37l-.12-.37-.12-.12-.87.74.74.37ZM243.99,78.21l-.12-.12-.12.25.25-.12ZM244.48,81.42l.12.62.5.12-.12-.25-.12-1.24-.25-.25-.74.12v.37l.62.5ZM244.48,61l.25.12.37-.87h-.25l-.25.12-.5-.25.37.87ZM244.73,62.74l-.25-.25v.25h.25ZM244.73,73.63l.12-.25-.25-.37-.12.62h.25ZM244.73,78.08l.25-.25h-.37l.12.25ZM244.98,80.31l.37.12.25-.12-.5-.5-.5-.12v.25l.37.37ZM244.98,83.53h.25v-.37l-.62-.25v.25l.37.37ZM244.98,75.73l.37-.37-.25-.12-.37.12.25.37ZM245.1,66.82l.5-.12-.25-.5h-.37l-.12.5.25.12ZM245.23,79.32l.12-.37-.37.25.25.12ZM245.35,58.9l.12-.25-.37-.12v.37h.25ZM245.23,74.62h.37l.12-.37-.37-.37-.25.25v.25l.12.25ZM245.47,32.67h.25l.12-.25-.37-.12-.12.12.12.25ZM245.72,65.21l.12-.37-.37-.25-.12.74.37-.12ZM245.72,77.83l.5-.12.49.5v-.87l.37-.5-.5-.12-1.11.12v.25l.25.74ZM245.84,90.21l.87-.12-.37-.62-.74-.25-.12.25.37.74ZM245.84,91.32l.12-.25-.25-.12v.37h.12ZM246.46,71.4l-.12-.25-.25-.12-.25.12v.25h.62ZM245.97,83.03l.25.12v-.25l-.37-.12.12.25ZM247.21,88.97v-.74l1.49-1.73-.5-.12v-.5l.25-.5v-.74l-.5-.25-.62.5.12.25.37-.12.12.5-.62.25.12-.25-.25-.25-.5.25-.12.74.5.12v-.5h.37l.12.74-.5.74-1.11.99,1.24.62ZM246.22,63.48l.37.25.37-.25-.25-.37h-.62l.12.37ZM246.96,81.05v-.25l-.25-.25h-.25v.37l.5.12ZM246.83,58.78l.12-.12-.37-.25v.25l.25.12ZM246.71,94.17l.87.5.87-.62-1.86-.12.12.25ZM247.33,50.61l.25-.37.37.12.12.99.37.37.74-.12-.12-.99-.25-.37h-.62l-.12-.25.25-.37.74.25.62-.12-.12-.62-.74-.37h-.74l-.12.25.25.37-.99.12-.37.5v.25l.5.37ZM247.33,96.77l.25-.37-.5.12-.25.49.5-.25ZM247.08,79.57l.12-.25-.25-.12.12.37ZM247.58,39.97h-.37l-.12.12.5-.12ZM247.45,89.84l.5-.25.25.5.74.12.25-.37-1.49-.5-.5.12.25.37ZM248.07,41.58v-.25l-.12-.25-.5-.12-.12.5.74.12ZM248.07,58.03l.12-.49-.12-.5h-.12l-.37.74-.12.99.62-.74ZM247.95,38.36v-.12h-.25l-.12.25.37-.12ZM247.95,76.35l.12-.37-.37-.12v.5h.25ZM247.82,83.53l.37.5.12-.25-.12-.49-.5-.25.12.5ZM248.32,59.89l.5-.5.25-.99-.5.87-.5.25-.25.37h.5ZM248.07,44.42l.99.12-.5-.87.12-.5h-.25l-.37.37-.12.5.12.37ZM248.44,46.9l.12-.12-.5-.25v.25l.37.12ZM248.32,52.59l-.12-.12-.12.25.25-.12ZM249.31,54.69v-.25l-.37-.5.25-.12v-.25h-.25l-.62.25-.25.37,1.24.5ZM248.32,56.05l.12-.25h-.25l-.12.25h.25ZM248.2,82.66l.5-.12.12-.5-.74.12v.25l.12.25ZM248.44,95.28h.25v-.25l-.12-.25-.37-.12-.12.25.37.37ZM248.44,76.47l.37-.12v-.25h-.62v.25l.25.12ZM248.57,88.35h.37l.12-.25-.37-.37-.25.25.12.37ZM249.06,46.03v-.25l-.5-.12v.25l.5.12ZM248.94,55.68h.25l-.5-.25.25.25ZM248.81,57.17v.25l.74.62v-.37l.37-.62-1.24-.12.12.25ZM248.94,81.05l-.12-.12-.12.25.25-.12ZM248.94,81.3l-.12-.12-.12.25.25-.12ZM249.93,31.68l-.5-.5.12-.37h-.25l-.25.25v.25l.87.37ZM249.43,41.82l.12-.5-.5.25v.5l.37-.25ZM249.43,60.14l.37-.37v-.25l-.25-.25-.5.12v.37l.37.37ZM250.55,88.72l-.5-.5h-.62l-.37.25,1.49.25ZM249.93,43.43l.25-.12v-.25l-.12-.25.25-.37-.74-.12-.37.25v.25l.74.62ZM249.56,53.33l.5-.12.12-.37-.12-.12h-.5l-.25.49.25.12ZM249.56,87.73l.5-.12.25-.37-.12-.25h-.25l-.62.62.25.12ZM249.8,90.21l.37.87.25-.12.87-.12-.12-.49h-.74l-.87-.74-.25.12.49.5ZM249.68,37.99l.5-.62-.12-.25h-.25l-.25.12-.12.74h.25ZM249.93,44.92l.5.25.62-.12.12-.25-.12-.25-1.61-.12.5.5ZM249.68,39.6h.25l.37-.37.12-.5v-.37l-.12-.12-.74.25.12,1.11ZM250.18,46.53v.25h1.11l.62.25v-.25l-.25-.37.12-.62-.5.12-.25.37-.5.12-.37-.62-.5.37.5.37ZM250.55,48.13l-.12-.49h-.5l-.25.25v.25h.87ZM250.18,51.23l-.12.74.25.12.5-.25.37-.62h-.62l-.5-.99h-.25l.37.99ZM249.93,98.25l.25-.12v-.25h-.37v.25l.12.12ZM250.42,62.12l-.12-.74h-.25l-.12.12v.49l.5.12ZM250.3,56.67l-.12-.12-.12.25.25-.12ZM250.18,59.52l.62.74.74.37.74-.12-.25-.37h-.99l-.25-.74-.37-.37-.37-.12v.25l.12.37ZM251.04,98.25v-.5l-.37.25v.37l.37-.12ZM250.92,50.11l.5.12v-.5l-.62-.12.12.49ZM251.91,54.2l.12-.5-.37-.12.5-.25.37-.12.12-.25-.25-.37.25-.25v-.37l-.37-.25-.37.37.37.37-1.49,1.48,1.11.25ZM251.04,89.47l.25.12v-.25l.12-.25.5-.25-.62-.12-.5.25.25.5ZM251.04,93.18l.25-.37-.5.25v.25l.25-.12ZM251.29,41.45l.25-.5-.37.12v.25l.12.12ZM251.29,49.25h.25v-.25l-.25-.25-.12.25.12.25ZM251.54,52.47l.12-.99.5-.25.25-.49-.25-.25-.37.37-.12.25-.25.74-.25.12v.25l.37.25ZM251.41,55.81l.5.37.25-.12-.5-.62h-.37l.12.37ZM251.91,38.98l-.12-.37-.12.12-.12.25h.37ZM251.91,48.88l.25.37v.99l.5-.37.12-.87.62.12-.37-.99-.25-.25-.12.37.12.5-.25.12-.25-.12-.5-.5.12.62ZM252.16,57.66l.12-.12-.12-.25h-.37v.37h.37ZM252.53,44.3l.12-.5-.25-.12-.12.37.25.25ZM252.4,56.8l.25-.12.12-.37h-.37l-.12.25.12.25ZM252.77,82.04l-.12-.12-.12.25.25-.12ZM252.9,50.49v.62h.5l.74-.62.12-.37-.25-.12-1.24.25.12.25ZM253.39,43.68l-.25-.37v.25l.25.12ZM253.52,47.52l-.12-.12-.12.25.25-.12ZM253.76,54.07l.12-.25.12-.5-.12-.37-.37-.12-.25.25.49.99ZM254.38,46.65l-.12-.74-.5-.12v.62l.62.25ZM254.26,54.94l-.12-.49-.12.25.25.25ZM254.38,58.65l.12-.25-.25-.25-.25.5h.37ZM254.51,48.01l.37.12.12-.25-.62-.5h-.25v.25l.37.37ZM254.51,25.36h-.12v.37l.12-.37ZM255,49.12v-.25l-.25.25h.25ZM255.25,40.09l-.12-.12-.12.25.25-.12ZM255.5,47.27l.25-.37h-.5v.37h.25ZM255.87,34.03l-.12-.12-.12.25.25-.12ZM256.61,59.52l.12-.87v-.25l-.37-.12-.12.25.37.99ZM257.11,55.06l.25-.5-.5.12v.25l.25.12Z"/>
      <path class="cls-3" d="M295.2,36.28l-26.01,2.43-1.23-13.18,68.05-6.35,1.23,13.18-26.01,2.43,6.3,67.58-16.03,1.49-6.3-67.58Z"/>
      <path class="cls-3" d="M466.25,53.08v3.22l-.37,1.49.37,2.23-.12,2.48-.25.5-.25-.5-.49.25.25.37.5.25.12.25-.12.62-.62.62-.12.74h.25l.5-.37.25.37v2.85l-.25,1.24.25.37-.12.5v2.1l.12.25v1.98l-.37.99v.62l.37.62v3.22l-.37.62.37,3.34-.12.25v1.48l.25,1.86-.37,1.11.12.99-.74,3.47-.5.99-.25,1.24-1.73,3.09-.25.12-1.11,1.98-3.46,3.46-1.86.87-.12.5-1.48.5-.12.25-1.73.99-1.49.12-1.24.62-1.48.12-.37-.25-.99.62-.74.12-1.11-.25-.5.25h-3.09l-.25-.12h-1.24l-3.46-.62-4.95-1.48-3.84-2.6-.12-.25-.5-.25-1.73-1.86-.74-1.24-.87-.5-1.48-2.6-1.49-3.96-.5-2.35-.12-2.23-.12-.25v-10.27l.12-.99-.12-.12.25-2.85-.25-1.24v-6.31l.12-.25v-5.2l-.12-.25v-3.96l.12-.12-.12-2.35.12-.25v-2.72l-.25-.37.25-.74-.25-1.24.37-.87-.25-3.46.25-.87.87.62-.74-.99-.5-2.6.12-.62.25-.37-.25-3.22.25-.99.12-2.48.5-1.36.5-.37-.25-1.11.62-1.61,1.48-2.97,1.49-1.73.5-.87,1.11-.99.62-.12-.12-.5,3.59-2.72,1.49-.37,1.73-.99,1.11-.37,3.22-.5,1.24-.5.37.12.25.5.74-.62h3.71l2.23.25.25.62.37.25v-.74l.12-.12,2.6.87.25-.25h.74l.87.5h.74l1.36.74h.5l.12.5.37-.12.5.37-.25.74.12.37.5.12.25-.25,1.36.12.25.25-.12.62.87-.12.37,1.11h.62l.49.25,2.23,2.48.37.99.5.49,1.73,3.59-.37.62.74.74-.12.62-.5.37.12.25.5-.25.25.62-.12.37-.37.37.87.37.25,2.1-.37.74.37.99-.5,1.48.62,1.49-.12,1.73-.74-.25-.37-.37-.5-.12.25.62.74.74.37-.12.25.25.12,1.11-.25.5.25.74v1.98l-.12.25v4.95l.25.25ZM420.71,49.74l.25.12v-.25l-.37-.12.12.25ZM420.96,68.8l.37-.62-.5.12-.12.37.25.12ZM421.7,46.4l.74.37.12-.25.25-.37h-.74l-.49-.25.12.49ZM422.2,45.54l.12-.49h-.25l-.37.37.5.12ZM422.57,43.31l.37-.37-.12-.25-.25.25-.62-.5-.12.12.74.74ZM422.32,49.37l-.12-.12-.12.25.25-.12ZM422.2,70.53l.25-.12-.37-.12v.25h.12ZM422.45,36.13v-.25h-.25v.25h.25ZM422.69,51.1l.25.12v-.25l-.37-.12.12.25ZM422.69,65.34h.25l.12-.25-.5-.25.12.49ZM422.94,52.71l-.12-.12-.12.25.25-.12ZM423.44,37l-.12-.62-.25-.25v.62l.37.25ZM423.56,46.9l.87-.37-.12-.62h-.12l-.5.25-.25.5.12.25ZM423.56,51.1l.12-.25.37-.12h-.62l.12.37ZM424.18,56.8l.99.5v-.12l-.87-.99-.87-.37.74.99ZM423.68,96.27h.25v-.25l-.37.12.12.12ZM424.18,58.53l.25-.12.12-.37-.25-.37-.49.12.37.74ZM423.93,59.52h.25v-.25l-.37-.37v.37l.12.25ZM424.3,67.44l.25-.12v-.25l-.62-.12v.25l.37.25ZM424.67,40.34l-.37.5h.37l.49.25.25-.12-.12-.74-.62-.99h-.5v.5l.5.62ZM424.43,44.79l.25-.25-.25-.12-.25.25.25.12ZM424.43,49l.5-.5.12-.37-.5.25-.25.5.12.12ZM425.05,38.11l-.12-.37.12-.74-.25-.12-.12.25-.25,1.11.62-.12ZM424.55,98.38v-.37l-.12.12.12.25ZM424.8,36.13l-.12-.12-.12.25.25-.12ZM424.67,43.56l.12-.25h-.25l.12.25ZM424.92,47.27v.25l.5-.12.12-.99-.37-.37h-.25l.12.37-.37.62.25.25ZM425.42,50.49l-.12-.62-.12-.25-.12-.12-.25.25-.12.62.74.12ZM424.92,66.7l-.12-.87-.12.12v.99l.25-.25ZM425.54,39.22l-.12-.25-.12-.12-.25.12v.25h.5ZM425.42,51.48l-.37-.12v.25l.37-.12ZM425.42,36.38l.25.12v-1.11l.37-.62h-.25l-.25.12-.37.74.25.74ZM425.29,64.1l.5.12v-.25l-.25-.12-.37.12.12.12ZM425.54,31.68l.25-.25-.25-.12-.12.25.12.12ZM426.03,57.79l.12-.5h-.5l-.25.37.62.12ZM425.66,37.74l-.12-.25v.25h.12ZM426.65,60.39l.12-.25-.5-.25-.62.25v.25h.99ZM426.03,25.49l-.12-.12-.12.25.25-.12ZM426.03,31.06l.37.25.12-.12v-.87l-.25-.25h-.25l-.25.25.25.74ZM425.91,45.16l.5-.12-.12-.25-.5-.12.12.5ZM426.16,48.13l.25-.25v-.74l-.12-.12-.37.5-.12.62h.37ZM425.91,65.71l.37.12-.25-.74-.25-.12v.5l.12.25ZM426.03,50.24l.37.25-.12-.12-.12-.62h-.25l.12.5ZM426.03,67.44l.5-.12-.12-.25-.5.12.12.25ZM426.65,42.32l-.25-.12-.37-.25v.62l.62-.25ZM426.53,48.75l.25-.12-.74-.12.5.25ZM426.53,62.98v-.25l-.37-.12v.25l.37.12ZM426.65,65.21l.25-.12-.25-.49h-.25l-.12.25.37.37ZM426.78,88.35l-.12-.37h-.37v.87l.5-.5ZM426.9,53.95l.25-.25v-.25h-.25l-.37.12-.12.37h.5ZM426.9,35.39v-.25l-.37-.12v.25l.37.12ZM426.78,41.7l.12.49.25-.12.12-.12-.12-.99-.5.12-.12.37.25.25ZM426.78,47.39l.37-.37-.5-.12v.25l.12.25ZM426.9,58.78l.49.12.12-.12-.12-.62-.37-.12-.37.37v.25l.25.12ZM426.9,85.14l.25-.25v-.25l-.37.12.12.37ZM427.02,38.48l.37-.12.25-.37-.25-.62-.37-.12-.12.62.12.62ZM427.15,49.37l.37-.12-.12-.25h-.25l-.25.37h.25ZM427.15,52.96l-.12-.12-.12.25.25-.12ZM427.64,61.38l.74.12.25-.37-.62-.25-.12-.37,1.11.25v-.5l.37-.49h.37l-.12-.25h-.37l-.99.49-.12-.12v-.74l-.12-.12-.99,1.11.62,1.24ZM427.52,64.1l.25-.5-.62.25.37.25ZM427.27,80.19l.5-.5h-.62l.12.5ZM427.52,91.94l.12-.25v-.25l-.37.12.25.37ZM427.77,75.85l-.25-.12v.25l.25-.12ZM428.01,102.58l-.25-.37-.12.12v.12l.37.12ZM428.01,25.24l.12-.25-.12-.25h-.25v.37l.25.12ZM428.01,57.79l.37.49,1.24-.87-.25-.37-.25-1.24-.49-.37-.25.12.12.25.37.87-1.11.37.25.74ZM428.26,67.44l-.12-.12-.25.25.37-.12ZM428.63,83.03v-.25h-.62v.37l.62-.12ZM428.51,38.61l-.25-.12v.37l.25-.25ZM428.51,73.01l.25-.12.12-.37-.5.12-.12.37h.25ZM428.76,76.84l.25.12.12-.25-.37-.99h-.25l-.25.12.5.99ZM428.88,41.7l.12-.37-.37-.49-.25.49v.25l.5.12ZM428.76,28.95l.37-.5.37.25.25-.25-.12-.37-.12-.12-.5-.12-.37.25-.12.62.25.25ZM428.63,32.54l.49.12v-.87l-.62.25.12.49ZM428.88,40.21l-.12-.25h-.25v.25h.37ZM428.88,81.55l.25-.5-.37.12v.25l.12.12ZM429.13,43.31l.12-.12.25-.37-.12-.25-.5.37v.25l.25.12ZM429.5,31.06l.25.12.12-.87.62-.25-.25-.5h-.12l-.74.62-.25-.12.37.99ZM429.25,39.47l.25-.12v-.25l-.37.12.12.25ZM429.38,53.58l.5.12.12-.25-.12-.12h-.62l.12.25ZM430.12,58.9l-.12-.25-.25-.12-.25.12.62.25ZM429.62,82.78h.25l.12-.25-.12-.12-.37.12.12.25ZM429.99,43.68l.25-.12-.12-.74-.5-.25v.87l.37.25ZM429.99,35.88h.25v-.25h-.37l.12.25ZM431.23,42.44l.12-.12.12-.25-.12-.25-1.48-.5v.87l1.36.25ZM430.12,37.24l.37.25v-.5l-.25-.25h-.25l.12.5ZM430.12,55.93l.25-.12.25-.5-.25-.12-.37.37v.25l.12.12ZM430.49,64.35l.25-.12-.25-.37-.5-.12v.25l.5.37ZM430.24,70.29h.25l.25-.74-.37-.12-.25.25-.12.49.25.12ZM431.11,28.71l-.87-1.24v1.11l-.12.25.99-.12ZM430.37,47.76l.12-.25-.25-.12-.12.25.25.12ZM430.61,32.54v-.12l-.12-.25-.25.37h.37ZM430.49,39.47l.5.12-.12-.25-.62-.25v.5l.25-.12ZM430.49,50.36l.12-.49-.25-.25-.12.74h.25ZM430.61,59.27l-.12-.25h-.25v.25h.37ZM430.37,60.63l.12-.25-.12-.12-.12.25.12.12ZM431.85,94.66h.37l-.12-.25h-1.86l1.61.25ZM430.61,34.89l.62-.12v-.37l-.25-.12-.37.12-.25.37.25.12ZM430.61,52.34h.62l.12-.12-.12-.37-.5-.12-.37.25v.25l.25.12ZM430.74,75.98l.12-.99-.49.25v.25l.37.5ZM430.86,60.01l-.25-.12v.25l.25-.12ZM430.98,32.05l.37.25.25-.12v-.5l-.37-.37-.5-.12v.37l.25.5ZM431.36,37.99l.12-.25-.5-.99-.25.87.62.37ZM430.98,44.67l.25-.5-.25-.12-.12.5.12.12ZM430.98,79.44h.5l.12-.5-.5-.12-.25.37.12.25ZM431.11,91.57l-.12-.12-.12.25.25-.12ZM431.36,43.56l.12-.25-.5-.25v.25l.37.25ZM431.36,27.34l-.25-.37v.25l.25.12ZM431.23,59.4h.87l-.12-.25-.62-.37-.12.12-.12.25.12.25ZM431.48,33.78h.25l.25-.12-.12-.49h-.25l-.25.37.12.25ZM431.85,70.53l.25-.37-.25-.12-.5.5h.5ZM431.48,81.18l.12-.25h-.25l.12.25ZM431.85,25.98v-.25l-.37-.12v.37h.37ZM431.73,34.77l.37-.25-.25-.12-.37.37h.25ZM431.73,50.36l.49-.25.25-.49-.25-.12-.62.25-.12.5.25.12ZM432.35,37.37v-.37h-.62l-.12.5.74-.12ZM432.1,90.83l-.37-.25v.25h.37ZM431.97,60.51l.5.12v-.5l-.5-.12-.12.25.12.25ZM432.22,51.35l.25-.37-.12-.25-.37.12v.5h.25ZM432.47,24.99l.12-.74-.25-.12-.25.49.37.37ZM432.22,28.33l.87.12.5-.37-.12-.12-.5-.25h-.74l-.12.12.12.49ZM432.22,55.44l.5-.25v-.37l-.5-.12-.12.25.12.5ZM432.47,30.19l.62-.37-.25-.5-.37-.12-.25.49v.37l.25.12ZM432.35,76.84l-.12-.87v.5l.12.37ZM432.47,93.06l.12-.25v-.12h-.37l.25.37ZM432.47,45.29l.74-.25.12-.25-.25-.12-.37-.12-.37.25.12.49ZM432.72,69.54l-.25-.25-.12.37.37-.12ZM432.72,23.38l.12-.25-.25-.12-.12.25.25.12ZM432.72,47.39h.37l.37-.37-.25-.12-.74.12v.25l.25.12ZM432.72,64.96l-.12-.12-.12.25.25-.12ZM432.72,26.23l.37-.25-.25-.12-.25.25.12.12ZM432.97,79.07l-.25-.25-.12.37.37-.12ZM432.97,22.27l.37-.37h-.62v.37h.25ZM433.09,35.51l.5-.12-.37-.74-.25-.12-.25.74.37.25ZM432.97,49.37h.25l.25-.37-.25-.12-.5.37.25.12ZM433.21,24l-.37-.25v.25h.37ZM433.46,69.05l.12-.37-.5-.37v.37l.37.37ZM433.21,91.32h.25v-.5h-.25l-.12.25.12.25ZM433.58,53.83v-.5h-.25l-.12.25.37.25ZM433.58,106.05l-.25-.12v.25l.25-.12ZM433.58,30.69h.25l.12-.62-.49.12.12.5ZM433.58,46.4h.25v-.25l.25-.62-.25-.12-.37.25.12.74ZM433.83,23.14l.5.25.99-.25-1.48-.12,1.48-.25.25-1.73-.62.49-.74,1.24-.12-.37-.37-.25-.12.25.25.74ZM434.33,43.68v-.37l-.37-.25-.25.12-.12.37.74.12ZM433.83,88.85l-.25-.25v.25h.25ZM434.2,34.52v-.25l-.25-.49-.25.74h.5ZM434.82,50.36l-.12-.37-.62-.74-.12.25-.12.62.99.25ZM433.95,82.91l.5-.12-.12-.25-.37-.12-.12.25.12.25ZM434.08,48.88h.25v-.25l-.37-.25v.25l.12.25ZM434.45,88.11l.5-.74-.87-.12-.12,1.11.5-.25ZM434.82,27.34l.25.25v.25l.37.49h.37l-.12-.87-.37-.25-.74-.12-.12.5.37-.25ZM434.82,48.01l.12-.12-.12-.12-.25.12v.25l.25-.12ZM435.07,22.39l.12.12v.12l-.37-.12.25-.12ZM435.07,24h.25v-.25l-.25-.25h-.25v.25l.25.25ZM435.56,49.5l.12-.25-.12-.12-.5-.12-.25.37.74.12ZM435.19,69.3l.37-.25.25-.74h-.25l-.25.12-.25.5.12.37ZM435.32,37.37h.5l-.5-.49-.12.37.12.12ZM435.44,72.27h.25v-.25l-.25-.12-.12.12.12.25ZM435.81,90.83v-.25l-.5.12.5.12ZM435.93,18.56l-.25-.12v.25l.25-.12ZM436.43,45.04l.37.25-.12,1.73-.25.37.25.5.25,1.36-.37.87.12,2.23.12.25-.25,1.61.25,3.71-.12.25v4.95l-.12.25v2.23l.12.12v2.1l-.5.12v.25l.37.37.12.49-.12,2.23.12.25v14.73l-.12.5.49,2.6.99,2.23.25.12.37.62.87.62,1.61.74,1.73.25,1.73-.12,2.97-1.11.37-.62,1.11-.37-.37-.49.62-1.24.25-2.72.25-.25v-4.08l-.25-.37-.12-.74.12-.25.12-2.97-.25-.25v-4.33l.62-1.48-.12-.5h.25l.62.62.5.12-1.24-1.24-.37-.87.12-2.97-.12-.5.5.25-.37-1.36.25-.5-.12-1.48-.37-1.73.37-.74-.37-1.11.25-.5-.12-2.72.12-.25-.25-1.48v-1.98l.12-.25v-.99l-.25-.99.37-1.48-.12-1.24,1.36.25v-.62l-.5-.12-.87.37-.12-1.86.12-.25.12-2.72-.12-.25v-.99l-.12-.25v-1.36l.12-.25v-1.98l.62.25v.87l.5-.12.5-.87-.12-.74-1.24.37-.37-.37v-2.1l-.62-1.86-.74-.99-1.98-1.48-1.24-.37-1.98-.12-.25.12-.5-.87-.37.87h-.62l-2.35,1.11-1.36,1.86-.37.87-.25,1.24-.12,1.86-.37.87.25.99v4.58l-.74.25-.12.37.62-.12ZM436.18,45.78l-.37-.12v.25l.37-.12ZM435.93,70.66v-.25h-.12v.25h.12ZM436.06,22.27l.5-.37.25-.62-.74.12-.12.87h.12ZM436.43,26.35l.25-.74,1.24.74v.25l-.12.37.25.25.25-.12.37-.87h.25l-.5-.62.25-.25-.5-.12-.25-.5-.74.37h-.74l-.5,1.36.5-.12ZM436.18,57.66l-.12-.12-.12.25.25-.12ZM436.8,22.77h-.37v.25l.37-.25ZM436.93,18.19l.12-.37h-.25l.12.37ZM437.05,18.68l.12.12.25-.12v-.25h-.5l.12.25ZM437.54,29.94v-.25l-.25-.12-.37.12.62.25ZM437.42,103.33l.12-.5h-.25l-.25.25-.12.49.5-.25ZM437.67,23.38l.87-.12.25.25v1.36l.5-.12.25-1.11.37.25.25.99h.25l.5-.74-.12-.5.74.12.12.5.74.12v.62l-.74.49.87.87v.5l1.61.12.25-.37h-.5l-.37-.62.12-.87-.5.12-.37.62-.37-.12.12-.49.25-.25.49-.12.5.12.12-.74-1.11.12-.25-.25v-.25l.5-.87-.12-.37-.99.37-.37-.5-.37.12-.37.62-.25-.12-.12-.74-.62.37-.62-.12-.37.12-.25-.5v-.12l-.37-.37v.99h-.5l-.37.37.37.25ZM438.16,21.03l.12-.87-.5-.99-.25.62.25.5.12.12-.49.5v.5l.74-.37ZM438.9,18.19l-.12-.12-.12.25.25-.12ZM439.15,20.79l.25-.12v-.37l-.37.12v.25l.12.12ZM439.77,21.9l.25-.12v-.25l-.12-.25-.5-.12v.25l.37.5ZM440.27,19.92l.74-.37.12-.25-.5-.12-.37-.87-.25-.12v.87l.12.12-.25.25-.25.12-.12.37h.74ZM440.14,26.48h.25l.5-.37.12-.87-.74.25-.37.87.25.12ZM440.64,21.4l.12-.25-.5-.12.37.37ZM441.26,28.33l.25-.37-.25-.12h-.25v.49h.25ZM441.5,26.6l.37,1.11h.25l.25-.25v-.49l-.62-.87h-.5l.25.49ZM442.12,20.91l.5-.25-.12-.74-.25.12-.74.25-.12.5.74.12ZM441.75,23.14l.25.12.12.12-.37.5v-.74ZM442.62,101.35v-.25l-.25.12v.25l.25-.12ZM442.62,29.2h.37l1.11-1.11-.12-.62h-.12l-.25.74-.99.25-.12.5.12.25ZM442.99,100.11v-.25l-.37-.25-.12.37.5.12ZM443.24,18.93l.62-.12.37-.25v-.25h-.37l-.87-.5-.12.25-.12.74.49.12ZM443.36,30.07l.12-.25-.12-.12-.12.12.12.25ZM443.73,23.26h.25l.5.37.37.87.12-.12.37.25-.12-.74.12-.25.87,1.73-.37.5-.12-.74-.25-.12-.12,1.11.62.25.5.62.37-.74.37-.25,1.24.62.25-.25-.37-2.1-.62.37h-.5l-.62-.37-.25-.74.25-.12.5.37.12-.12v-.99l-1.48.37-.99.62-.12-.25v-.37l-.25-.25-.5-.12-.25.37.12.25ZM443.98,28.95l.37-.12-.25-.12-.37.12.25.12ZM444.72,22.52l.25.12.37-.37.37-.74.5-.12v-1.61l-.5.37.12.37h-.25l-.74.37-.37,1.11.25.5ZM444.97,30.19l.12-.12-.5-.37-.12.37.49.12ZM445.46,18.31v-.25h-.5v.25h.5ZM445.46,28.33l.62.12v-.25l-.12-.25-.5-.12-.12.25.12.25ZM445.83,99.49l-.12-.25-.25-.12v.37h.37ZM446.45,18.81l.87-.12-.5-.37-.25-.12-.25.12-.12.37.25.12ZM447.69,30.81v-.5l-.62-.74-.37-.12.99,1.36ZM446.95,97.63v-.25l-.12-.12-.12.25.25.12ZM446.95,27.84l.99.99.37-.74-.12-.74-.37-.25-.99.5.12.25ZM447.07,28.58l-.25-.25v.25h.25ZM447.2,19.18l.12-.37-.37.12.25.25ZM447.44,107.53l.5-.12-.37-.37-.25.12v.25l.12.12ZM447.57,24.87h.49v.74l-.12.12-.5-.62.12-.25ZM447.69,20.04l.25-.12-.37-.12.12.25ZM447.94,29.57l-.37-.25v.25h.37ZM447.94,18.68l-.12-.25v.25h.12ZM448.19,97.14l-.12-.12-.12.25.25-.12ZM448.68,23.26l.74.62.5.12,1.11-.12,1.36.87v-.62l-.25-.25-.5-.12-.25-.37.37-.99h-.62l-.37.25.25.37-.12.49-1.73-.25.5-1.36-.5-.12v-.74l.37-.37.62.12.25-.37h-.5l-.74-.37-.25.12-.87.37v.5l.74-.12v.5l-.74.5.62,1.36ZM448.19,31.43h.37l-.12-.37-.37.12.12.25ZM449.42,26.97v-.37l-.25-.12-.12.25.37.25ZM449.42,18.56l.37-.37-.12-.25-.5.12v.37l.25.12ZM449.67,29.57l-.12-.12h-.25l-.12.25.5-.12ZM449.42,31.68l1.11.12.12-.37.62-.74-.25-.12-.62.5h-1.24v.25l.25.37ZM450.54,93.18l-.87-.12-.12-.25h-.25l-.12.25,1.36.12ZM449.3,107.41h.25l.12-.5-.25-.25-.25.5.12.25ZM449.42,28.21l.99-.25-.12.62-.37.37.99.49.25.37.5.12.87-.12v.25l-.37.49.74.87h.37l.74.5-.74.62-.37-.49-.37-.12.12.5.5.74v.62l.62,1.11,1.61.12,1.61-.25-.74-.5-.5.12-.37-.25-.12-.62-.37-.62-.37-.25-.12-.37.62-.74.5-.12-.25.62.12.49.74-.25.87.12.25-.99.87.12-.62-2.1-.87.25.25-.62.37-.25.49.12v-.25l.5-.5-.25-.37-.74-.5.12-.5.99-1.24.25.12v-.74h-.5l-.74.62-.5-.12-.25-1.24h-.25l.12,1.11-.25.12-.37-.12-.25.12.12.37.5.12.74-.25-.25,1.11-.74.12-.74-.12.12-.37-.12-.25-1.24.12v-.25l.25-.25h.74l-.25-.74-.87-.12-.37.62-.37-.37.25-.5-.12-.99h-.25l-.25.37v1.86l-.12.25-.62-.25.12.5.87.74.25.74.49.25h.5l.5-.99.37-.25v.87l-1.61,1.73-.62.12-1.48-.74-.25-1.49-.62-.37.12.25-.25.5-1.11.12.12.25ZM449.55,94.05l.25-.25-.25-.12h-.25v.25l.25.12ZM449.79,35.14v-.25l.12-.25-.37-.5-.12.62.37.37ZM449.67,48.63v-.12h-.25l.25.12ZM449.92,101.1l.12-.25-.62-.12v.25l.5.12ZM450.29,103.57l.25-.12-.37-.62-.25.25.37.49ZM450.29,47.02l.12-.25v-.25h-.37v.37l.25.12ZM451.16,50.86l.5-.25v-.25l-.37-.25h-.87l-.37.25v.25l1.11.25ZM450.29,52.96l.62-.37-.87-.12v.37l.25.12ZM450.66,41.08l.12-.25-.37-.37-.12.5.37.12ZM450.66,59.52h.49l1.49-.5v-.37l-.37-.12-.74.74-.12-.12-.87-.37-.25.12.37.62ZM450.54,70.53l-.12-.25h-.12v.25h.25ZM450.54,94.91l-.25-.25v.37l.25-.12ZM450.54,106.3l.25-.12v-.25h-.25l-.25.25.25.12ZM450.66,19.67l.25-.5-.37.12-.12.12.25.25ZM451.16,25.24v-.25l-.12-.25-.5-.12-.12.25.74.37ZM450.78,27.84h-.37v.12l.37-.12ZM450.66,60.88l-.12.12.5-.25.12-.5-.62.12-.12.37.25.12ZM451.03,45.29l.12-.25-.12-.37-.5.12.5.49ZM451.03,46.4l.12-.25-.62-.12v.25l.5.12ZM450.66,47.76l.25-.5-.37.12.12.37ZM451.65,58.16l.25-.12-1.36-.25,1.11.37ZM450.66,28.46h.25l.12.5-.37-.12v-.37ZM450.78,68.43l.5.12.12-.25-.12-.12-.62.12.12.12ZM451.28,26.97l.37.74.5.12-.25-.5-.25-.87-.5-.5-.37.99h.5ZM451.16,37.37l.12-.37h-.25l-.25.12.37.25ZM451.03,32.05l.12.12.74-.25.25-.74h-.37l-.5.62h-.37l.12.25ZM451.16,61.99l.25-.12.37-.62-.25-.12-.62.5v.25l.25.12ZM451.28,53.46v-.74h-.12l-.12.62.25.12ZM451.4,56.18l.62-.25.25-.5-.25-.37-.12.25-.62.37-.12.37.25.12ZM451.53,41.08l-.25.12v.12l.25-.25ZM451.77,18.43l.12.25-.12-.74-.12.12-.25.37h.37ZM451.53,54.45l.99-.12.25-.49h-.25l-.37.25-.74-.25.12.62ZM451.65,64.47l.12-.12-.37.25.25-.12ZM451.77,35.26l.99.37-.12-.25.12-.62-.25-.12-.99.12.25.5ZM451.77,46.77l.25.25.12-.25v-.5l-.62-.5.25.99ZM451.77,73.13l-.12-.12-.12.25.25-.12ZM451.9,67.44l.37-.62-.25-.12-.12-.12-.25.12.25.74ZM451.9,75.48l1.36-.37-1.61.37h.25ZM452.39,68.92l.12-.25-.12-.25h-.37l-.12.25.5.25ZM452.15,70.04l.25-.37-.25-.12-.25.12v.25l.25.12ZM452.15,71.15l.37-.37-.62-.12v.5h.25ZM452.15,40.34l.5.12-.12-.25.37-.25.12-.37-.74-.12-.25.25.12.62ZM452.52,66.2l.12.25-.25.25.12.25.87-.5.62-.12.25-.87-.37-.25.5-.25-.25-.25h-.25l-.5.74-.5.25-.62-.37-.25.37.5.49ZM452.52,74l-.12-.25-.37-.12v.37h.5ZM452.52,20.41l.12-.12-.12-.37-.37-.12v.62h.37ZM452.52,45.29v.37l.12-.25.37-.99.62-.37-.87-2.1-.25.49.5,1.11-.74.25-.12.74.37.74ZM452.39,64.59l.25-.12v-.25h-.25l-.25.12.25.25ZM452.64,29.08h.62l.37-.25-.25-.5-.87.12-.12.5.25.12ZM452.64,37l.12-.25.5-.5-.25-.12-.5.5.12.37ZM452.76,60.51l.62-.5.37-1.24-.49-.25.12.87-.5.12-.37.99h.25ZM452.76,70.16l.37-.12-.12-.25h-.37l-.12.25.25.12ZM452.76,50.36l.5-.62.62.12.12,2.1.25.99-.37.25-.74-.49v.49l.74.37h.37l.12.49h.62v-.37l-.25-.5-.12-.99,1.24-1.24.12-.37-.12-.25-.62.37-.99.12.37-.87.12-.74-.5.25-1.61-.25.12.25-.12.25.12.62ZM453.01,63.97v-.49l-.12-.25h-.25v.62l.37.12ZM453.01,47.27l.5-.37.12-.5-.5.25-.25.5.12.12ZM453.01,55.93l.12-.25.12-.37-.37.37.12.25ZM453.51,21.4v-.25h-.25l-.25.25h.5ZM453.26,26.35l.74.12.12.5-.12.37-.62-.62-.25-.12.12-.25ZM453.51,37.86l.62.12.12-.5h.37l.12.5-.25.12v.25l1.24.5-.37-.37-.25-1.61-.25-.37-.5.12-.37.37h-.12l-.12-.12-.49.37-.12.37.37.25ZM453.26,68.43l.25.12.37-.12.25-.37-.5-.25-.5.5.12.12ZM453.38,98.38l.25-.37h-.37l-.12.37h.25ZM453.51,54.07l.12-.25h-.37v.25h.25ZM453.38,30.56l.5-.37.25.12-.12.62-.5.12-.12-.25v-.25ZM453.51,36.38l.12-.37-.25-.12v.37l.12.12ZM453.51,88.85h.25v-.5l-.37.12.12.37ZM453.63,101.72l.74.12-.25-.49-.5-.25-.12-.25-.12.25.25.62ZM453.88,19.92l.25-.87-.5-.12v.25l-.12.62.37.12ZM453.75,56.92l.62-.25v-.25l-.62-.25-.25.25v.37l.25.12ZM453.75,41.08l.37.25.87.12-.37-.12-.12-.25.12-.37.74-.37.37.12-.25.87.37.12.37.37-.12.37-.5.12-.12.25.49.49-.12.74.74.5.25-.37-.25-1.36.37-.12.37.12-.37-.87.37-.5-.37-.87h.25l.25-.25-.5.25-.87.12-.12-.25-.49-.87-.5-.12.5.62-1.86.5.12.74ZM454,45.41v-.12l-.37-.12.37.25ZM453.75,58.28h.99l-.5-.49-.5-.12-.12.12.12.49ZM454.25,67.32l1.11-.74-.5-.37-.5.5-.74.5.62.12ZM454.87,44.55l.12.62-.5.99.5.5.12-.25v-.87l.62-.12-.37-1.36-.62-.37-.99.74,1.11.12ZM454,98.62l-.25-.25v.25h.25ZM454.62,82.29l.12-.25-.74-.12v.25l.62.12ZM454.25,103.95v-.25h-.25v.25h.25ZM454.5,22.64l.5-.62-.5-.12-.37.25v.49h.37ZM454.37,36.38v-.25l.25-.25.5.25-.25-.5-.74.12v.49l.25.12ZM454.87,61.62l.37-.37-.5-.37h-.5l-.12.12.74.62ZM454.5,71.03l.25-.12v-.25l-.62-.12v.25l.37.25ZM454.37,49l.5-.12.25-.5-.12-.12-.25-.12-.5.37.12.5ZM454.37,64.47h.25l.12-.5h-.37l-.12.25.12.25ZM454.74,76.1l-.25-.5h-.25v.25l.5.25ZM454.5,102.71l.37-.12.37-.62-.74.37-.25.5.25-.12ZM454.5,33.9l.12.25h-.25l.12-.25ZM454.62,100.48l-.12-.12-.12.25.25-.12ZM454.62,29.2l.25.12.12.25.87.37-.25-.62.12-.12h.62l.12.87.5.25-.12.5-.74.25-1.49-.37-.12-.74.12-.74ZM454.87,86.74l.5.12-.12-.49-.62-.12v.25l.25.25ZM454.87,21.28h.5l.25-.5.5-.12-1.36.12v.25l.12.25ZM454.99,75.11l.37-1.11h-.37l-.25,1.11h.25ZM454.99,94.79l.5-.37-.12-.25-.25.25-.12-.12-.25.12v.25l.25.12ZM455.49,24.13h.25l-.5-.99-.12-.12-.25.62.62.5ZM455.12,69.54l-.12-.12-.12.25.25-.12ZM455.36,85.63l.12-.25-.12-.25-.37-.12-.12.25.5.37ZM455.36,67.81l.5-.37v-.25l-.25-.12-.5.12-.12.62h.37ZM456.48,22.39v-.49l-1.24-.25-.12.12,1.36.62ZM455.61,56.55l.62-.12.25-.37-.25-.25h-.74l-.37.62.5.12ZM455.24,64.59l.37.12.12-.25-.62-.37.12.5ZM455.36,79.69l.5-.12-.25-.37-.37.12v.25l.12.12ZM455.49,87.73l.12-.49h-.25v.25l-.12.25h.25ZM455.36,101.84l.25-.12.5-.5h.5l-.12-.25-1.24.12.12.74ZM455.61,47.27l.12-.25h-.37v.25h.25ZM455.49,99.49l.49-.37v-.25l-.25-.12-.25.12-.12.12.12.5ZM455.61,103.82v-.25l-.25.37.25-.12ZM455.86,53.08l.12-.37-.37.12v.25h.25ZM455.98,70.41l.37.25v-.74l.37-.87h-.74l-.37.37.37.99ZM455.86,77.71l.5.12v-.37l-.25-.37h-.25l-.12.25.12.37ZM456.11,81.3l.25.12.12-.12-.12-.74h-.25l-.37.5.37.25ZM456.35,27.59l.25.12v.25l-.5.5h-.25l.5-.87ZM456.23,38.11l.25.5.62.62.12-.25-.12-.5.12-.37h-.25l-.87-.37-.25.12.37.25ZM456.23,59.15l.5-.12.37.25.12.5h.74l.25-.12-1.61-1.11-.12-.74-.37-.37-.12.12.12.62.25.25-.5-.12v.74l.37.12ZM455.98,91.32l.25.12-.25-.37-.12.25h.12ZM456.35,61.87l.12.25-.25,1.24.5-.25.62-.87v-.49l-.37-.5-.62-.25-.37.74.37.12ZM456.35,46.53l.74-.37.12-.25-.25-.12-.87.74h.25ZM456.23,65.21l.37.25.37-.12-.5-.49-.37.12.12.25ZM456.48,103.95l-.37-.12v.12h.37ZM456.48,37.49l.87-.62.74-.12.37-.99.12.12.49-.12.5.12.37-.62.37.12-.12-.49.12-.37.37-.25-1.49.12-.12-.5.37-.87-.62-.37-.5.12.25.37.37.12-.62,2.1-1.11.62-.12.12-.25.12-.62.87.25.37ZM456.35,51.23l.25.12.12-.74h-.25l-.25.25.12.37ZM456.6,83.65l.25-.12-.25-.37-.37.12v.37h.37ZM456.6,50.24l.37-.37h-.25l-.25.12.12.25ZM456.72,86.25l.37-.12.74-.74h-.25l-.37.5-.62-.25v.37l.12.25ZM457.59,34.89h.25v-.37l-.25-.49v-.12l.25-.62h-.5l-.62.74.87.87ZM456.97,55.68l.25-.37-.25-.12-.25.12v.37h.25ZM456.85,56.8l.37.25.25-.12.25-.5h-.25l-.5-.37-.25.25.12.5ZM457.22,46.9l-.25-.25-.12.37.37-.12ZM456.97,71.15l.62.12.25-.5-.25-.12-.74.25.12.25ZM457.96,77.09v-.25l.25-.74-.5-.25-.37.12-.37.5.99.62ZM457.34,87.98l-.12-.25h-.25v.5l.37-.25ZM457.34,99.86l.12-.12v-.25l-.5-.12.37.5ZM458.09,37.99v-.25l-.37-.37h-.25l-.25.25v.37h.87ZM457.71,52.71l-.12-.25-.25.25h.37ZM457.84,81.55l.5.12v-.25l-.12-.25h-.62l.25.37ZM457.84,102.09l.12-.25-.25-.12-.12.25.25.12ZM457.84,44.92l.12.25.37.12.37-.37-.12-.25-.5-.12-.37.25.12.12ZM458.33,54.69h.25l-.12-.99-.37-.12-.25.25-.12.25.62.62ZM457.96,40.83l.5.37.12-.25-.25-.74-.5.12.12.5ZM458.46,58.41l-.12-1.11-.25.12-.25.37.62.62ZM457.96,64.96l.25-.5-.37.12v.25l.12.12ZM457.96,72.39h.25l.5-.12.25-.5h-1.11l.12.62ZM458.09,77.71v-.25l-.25-.25v.5h.25ZM458.95,24.13h-.25l-.25-.12-.25.12-.12.37.87-.37ZM458.21,39.22l.74.5.25-.12v-.25l-.37-.25-.74-.12.12.25ZM458.95,42.44l.37,1.24.37-.12.12-.5-.12-.37h.12l.5-.25.12-.49-.99-.87.12-.62-.25-.12-.62,1.11-.25.12-.37.74.87.12ZM458.21,49.87l.12-.25-.12-.12-.12.12.12.25ZM458.58,38.48l.25-.12.37-.74.5.12-.12-.5-.87-.37-.37.37.12.25.25.12-.37.37-.12.37.37.12ZM458.46,66.82l.25.12.87-.12-.5-.12v-.62l-.87.25.25.49ZM459.08,48.63h.37v-.37l-1.11-.99.74,1.36ZM458.58,30.07l.49-.25.99.49.12-.25-.87-.99.12-1.11-.37-.37h-.25l-.12.12.37.87-.62.99.12.5ZM458.83,49.5l.12-.25-.25-.12-.25.37h.37ZM458.95,26.97l.5.25.25-.49v-.5l-.37-.37-.5.12-.12.62.25.37ZM459.2,46.03l-.12.5.12.49.5-.49v-.5l-.25-.25.62-.74-.5-.12-.74.5v.5l.37.12ZM459.45,60.76l.12-.12-.12-.37-.12-.25h-.37l-.12.5.62.25ZM459.45,76.6l.37-.12-.37-.37-.5-.12-.12.25.62.37ZM459.2,81.05l.12-.25-.37-.12v.49l.25-.12ZM459.2,65.46l.37-.37-.25-.12-.25.37.12.12ZM460.31,32.17v-.37l-.37-.25-.49.12-.25.37,1.11.12ZM459.45,41.7l.12.25h-.25l-.12-.25h.25ZM459.69,52.09l-.5-.25v.12l.5.12ZM460.07,59.02h.25l-.12-.25.5-.5-.12-.37-.99-.12-.37.37.87.87ZM459.94,62.86l.99.12.12-.87-.37-.12-.74.37-.74-.25v.37l.74.37ZM459.69,89.84l.12-.25h-.25l-.25.25h.37ZM459.94,38.98l.12-.25-.37-.37-.12.25.37.37ZM459.82,54.57l.25.12v-.74l-.25-.37-.25.12v.37l.25.5ZM459.94,99.61l.12-.25-.37-.37-.12.5.37.12ZM460.07,47.89v-.25l-.37-.12.37.37ZM460.07,72.27l.12-.37-.5.25.37.12ZM460.31,77.71l.25-.37-.25-.12h-.5l-.12.37.62.12ZM461.06,27.22l.74.12.12-.37-.5.12-.37-.25-.12-.5-.74-.37-.25.25v.5l1.11.49ZM460.07,28.58h.25v-.49h-.25l-.12.25.12.25ZM460.19,66.45l-.12-.37-.12.37h.25ZM460.07,69.91h.12l.25-.12.5-.74-.25-.37-.74.99.12.25ZM460.07,71.15l.25-.12.12-.49-.5.37.12.25ZM460.19,81.92l.12-.25-.37-.12v.25l.25.12ZM460.56,49l.12.37-.37.5v.25l.74-.62.74-.99-.25-.12-.5-1.11-.37-.12v.62l-.5.5-.12.62.5.12ZM460.81,37.99l-.12.49h.37l.25-.25-.12-.37-.74-.87-.25.12.62.87ZM460.31,43.93l.37.12.12-.5h.74l.12-.5h-.25l-.25.12-.74-.25.12.5h-.37l.12.5ZM460.44,75.85l-.12-.12-.12.25.25-.12ZM460.56,23.63l-.25-.12v.25l.25-.12ZM460.44,63.85l.25-.37-.37.37h.12ZM460.56,80.06l.12-.12-.37-.37v.25l.25.25ZM460.68,51.97l.37.12v-.49l.37-1.11-.25-.12v.25l-.74.87.25.5ZM460.68,56.18l.87-1.24h-.87l-.25,1.24h.25ZM460.56,73.38l.37.37.25-.62-.25-.12-.5.12.12.25ZM460.68,39.84l.37.25.25-.5-.5-.5-.25.25.12.5ZM461.06,45.04h-.25l-.12.37.37-.37ZM460.93,74.62l1.73-1.11-.12-.74-.25-.37-.37.62h-.25l-.12-.25h-.37l.37.74v.25l-.74.5-.12.25.25.12ZM461.06,42.19l.25-.12.25-.5-.12-.37-.5.5-.12.49h.25ZM460.93,66.08h.25l.37-.62-.12-.5-.37.12-.25.5.12.5ZM461.06,32.42l.37.25.5-1.36-.25-.12-.49.12-.25.5.12.62ZM461.18,84.89l-.12-.12-.12.25.25-.12ZM461.43,33.66l.25-.12.37-.25.12-.5h-.5l-.49.37.25.49ZM461.43,46.53l-.12-.12-.12.25.25-.12ZM462.29,63.73l.12-.25-.37-.74h-.37l-.37.5.99.5ZM461.43,75.98l.74.87.5.25h.74l.37-.25h-.25l-.99-1.24-1.24.12.12.25ZM461.92,29.32l.12-.12v-.5l-.25-.12-.25.37.37.37ZM462.05,35.02v-.25l-.5-.25.5.5ZM461.8,56.67l.12-.37-.37.12v.25h.25ZM461.8,55.93l.5.12.25-.25-.25-.12.25-.12-.87-.12v.25l.12.25ZM462.42,71.77l.37.37h.37l.25-.37-.12-.25h-.62l.25-.5v-.25l-.37-.37-.74-.12.62,1.48ZM462.17,37.74l.25-.12v-.25l-.37-.37-.12.74h.25ZM462.17,46.4l-.12-.25v.25h.12ZM462.17,49.37l.5-.12-.12-.25-.25-.12-.25.25.12.25ZM462.29,37l.25-.62h-.25l-.12.25.12.37ZM462.42,40.59l.5-.12-.12-.25-.62-.12.25.5ZM462.66,62.49v-.37h-.37l.37.37ZM462.54,60.88l.5.12.37-.25-.5-.5-.5.25v.25l.12.12ZM462.42,76.23l.25.12-.25.12v-.25ZM462.91,32.42l-.25-.37-.12.25.37.12ZM462.66,34.52l.5-.25.5-.62-.62-.12-.5.12v.62l.12.25ZM462.66,38.98l.25.25h.5l-.25-.37-.62-.12.12.25ZM462.79,51.23l.12-.25h-.25l-.12.25h.25ZM463.04,52.96v-.25h-.25l-.12.37.37-.12ZM463.04,67.44l.5-.5h-.62l-.12.37.25.12ZM463.16,56.55l.25-.25v-.25l-.25-.12-.25.37.25.25ZM463.28,48.51l.87.12.25-.25v-.25h-.25l-.87-.37-.25.12.25.62ZM463.16,55.44l1.61.37-.12-.25-.62-.37h-.5l-.5-.25v.25l.12.25ZM463.16,64.47v1.24l.5.25v-.49l.37-.37-.25-.12-.5-.74h-.25l.12.25ZM463.28,31.55l.37.12.12-.62-.5-.12-.12.12.12.5ZM463.53,32.91l.25-.37-.25-.12-.37.25v.25h.37ZM463.41,50.61l.49.12.5-.12-.74-.99-.12.25-.25.25.12.5ZM463.41,70.9h.37l-.25-.5-.25.12.12.37ZM463.78,36.13l-.25-.25-.12.37.37-.12ZM463.53,74.49l.74.25v-.49l-.74-.37-.12.25.12.37ZM463.9,62.24l.37-.37-.5-.87-.12.25v.99h.25ZM464.03,64.1v-.87l-.37-.25v.5l.37.62ZM463.9,52.09l.5.37.37-.37-.25-.12-.5-.62-.25.25.12.49ZM463.9,76.35l.37.12.12-.25-.12-.25-.5.12.12.25ZM463.9,77.34h.37l.25-.37-.12-.25-.62.37.12.25ZM464.77,36.63l.12-.62-.25-.25-.12.25-.5.49.74.12ZM464.27,73.26h.49l.12-.25-.87-.25v.25l.25.25ZM464.27,41.08h.49v-.25l-.49-.12-.12.25.12.12ZM464.52,65.95l.25-.25-.49-.12v.25l.25.12ZM464.52,68.8l.5-.12.25-.37.25-1.61h-.25l-.74.74-.12.62.12.74ZM464.77,57.66l.99.12-.99-.99-.25.25v.5l.25.12ZM464.64,63.85h.5l.12-.25-.12-.5-.62-.37.12,1.11ZM465.02,35.26l.12-.25-.37-.25v.5h.25ZM465.02,47.02l.12-.25-.25-.12-.12.25.25.12ZM465.39,54.94l.25-.12.12-.5h-.62l-.25.37.5.25ZM465.39,51.6l.12-.25h-.37v.25h.25ZM465.39,70.29l.25-.37-.12-.12-.37.25v.37l.25-.12ZM465.51,71.89v-.12l.12-.25-.37.25.25.12Z"/>
      <path class="cls-3" d="M480.36,30.83l13.55-1.26,6.89,73.93,26.28-2.45,1.15,12.32-39.84,3.71-8.04-86.25Z"/>
      <path class="cls-3" d="M537.25,37.44c-.2-2.16,1.33-4.01,3.49-4.21s4.01,1.34,4.21,3.49-1.33,4.01-3.49,4.21-4.01-1.34-4.21-3.49ZM537.97,45.14c-.2-2.16,1.33-4.01,3.49-4.21s4.01,1.34,4.21,3.49-1.33,4.01-3.49,4.21-4.01-1.34-4.21-3.49ZM539.4,60.54c-.2-2.16,1.33-4.01,3.49-4.21s4.01,1.34,4.21,3.49c.2,2.16-1.33,4.01-3.49,4.21s-4.01-1.34-4.21-3.49ZM540.12,68.25c-.2-2.16,1.33-4.01,3.49-4.21s4.01,1.34,4.21,3.49c.2,2.16-1.33,4.01-3.49,4.21s-4.01-1.34-4.21-3.49ZM540.84,75.95c-.2-2.16,1.33-4.01,3.49-4.21s4.01,1.34,4.21,3.49c.2,2.16-1.33,4.01-3.49,4.21s-4.01-1.34-4.21-3.49ZM541.56,83.65c-.2-2.16,1.33-4.01,3.49-4.21s4.01,1.34,4.21,3.49-1.33,4.01-3.49,4.21-4.01-1.34-4.21-3.49ZM542.28,91.35c-.2-2.16,1.33-4.01,3.49-4.21s4.01,1.33,4.21,3.49c.2,2.16-1.33,4.01-3.49,4.21s-4.01-1.34-4.21-3.49ZM542.99,99.05c-.2-2.16,1.33-4.01,3.49-4.21s4.01,1.33,4.21,3.49c.2,2.16-1.33,4.01-3.49,4.21s-4.01-1.33-4.21-3.49ZM543.71,106.75c-.2-2.16,1.33-4.01,3.49-4.21s4.01,1.34,4.21,3.49c.2,2.16-1.33,4.01-3.49,4.21s-4.01-1.33-4.21-3.49ZM544.43,114.45c-.2-2.16,1.33-4.01,3.49-4.21s4.01,1.34,4.21,3.49c.2,2.16-1.33,4.01-3.49,4.21s-4.01-1.34-4.21-3.49ZM544.95,36.72c-.2-2.16,1.34-4.01,3.49-4.21s4.01,1.34,4.21,3.49-1.34,4.01-3.49,4.21-4.01-1.34-4.21-3.49ZM545.67,44.42c-.2-2.16,1.34-4.01,3.49-4.21s4.01,1.34,4.21,3.49c.2,2.16-1.34,4.01-3.49,4.21s-4.01-1.34-4.21-3.49ZM547.11,59.83c-.2-2.16,1.34-4.01,3.49-4.21s4.01,1.34,4.21,3.49c.2,2.16-1.34,4.01-3.49,4.21s-4.01-1.34-4.21-3.49ZM547.82,67.53c-.2-2.16,1.34-4.01,3.49-4.21s4.01,1.34,4.21,3.49-1.34,4.01-3.49,4.21-4.01-1.34-4.21-3.49ZM548.54,75.23c-.2-2.16,1.34-4.01,3.49-4.21s4.01,1.34,4.21,3.49-1.34,4.01-3.49,4.21-4.01-1.34-4.21-3.49ZM549.26,82.93c-.2-2.16,1.34-4.01,3.49-4.21s4.01,1.34,4.21,3.49c.2,2.16-1.34,4.01-3.49,4.21s-4.01-1.34-4.21-3.49ZM549.98,90.63c-.2-2.16,1.34-4.01,3.49-4.21s4.01,1.33,4.21,3.49c.2,2.16-1.34,4.01-3.49,4.21s-4.01-1.34-4.21-3.49ZM550.7,98.33c-.2-2.16,1.34-4.01,3.49-4.21s4.01,1.33,4.21,3.49-1.34,4.01-3.49,4.21-4.01-1.33-4.21-3.49ZM551.41,106.03c-.2-2.16,1.34-4.01,3.49-4.21s4.01,1.34,4.21,3.49c.2,2.16-1.34,4.01-3.49,4.21s-4.01-1.33-4.21-3.49ZM552.13,113.74c-.2-2.16,1.34-4.01,3.49-4.21s4.01,1.34,4.21,3.49-1.34,4.01-3.49,4.21-4.01-1.34-4.21-3.49ZM552.65,36c-.2-2.16,1.33-4.01,3.49-4.21s4.01,1.34,4.21,3.49-1.34,4.01-3.49,4.21-4.01-1.34-4.21-3.49ZM553.37,43.71c-.2-2.16,1.33-4.01,3.49-4.21s4.01,1.34,4.21,3.49-1.34,4.01-3.49,4.21-4.01-1.34-4.21-3.49ZM554.81,59.11c-.2-2.16,1.33-4.01,3.49-4.21s4.01,1.34,4.21,3.49c.2,2.16-1.34,4.01-3.49,4.21s-4.01-1.34-4.21-3.49ZM555.53,66.81c-.2-2.16,1.33-4.01,3.49-4.21s4.01,1.34,4.21,3.49c.2,2.16-1.34,4.01-3.49,4.21s-4.01-1.34-4.21-3.49ZM556.24,74.51c-.2-2.16,1.33-4.01,3.49-4.21s4.01,1.34,4.21,3.49c.2,2.16-1.34,4.01-3.49,4.21s-4.01-1.34-4.21-3.49ZM556.96,82.21c-.2-2.16,1.33-4.01,3.49-4.21s4.01,1.34,4.21,3.49-1.34,4.01-3.49,4.21-4.01-1.34-4.21-3.49ZM557.68,89.91c-.2-2.16,1.33-4.01,3.49-4.21s4.01,1.33,4.21,3.49-1.34,4.01-3.49,4.21-4.01-1.34-4.21-3.49ZM558.4,97.61c-.2-2.16,1.33-4.01,3.49-4.21s4.01,1.33,4.21,3.49c.2,2.16-1.34,4.01-3.49,4.21s-4.01-1.33-4.21-3.49ZM559.12,105.32c-.2-2.16,1.33-4.01,3.49-4.21s4.01,1.34,4.21,3.49c.2,2.16-1.34,4.01-3.49,4.21s-4.01-1.33-4.21-3.49ZM559.83,113.02c-.2-2.16,1.33-4.01,3.49-4.21s4.01,1.34,4.21,3.49c.2,2.16-1.34,4.01-3.49,4.21s-4.01-1.34-4.21-3.49Z"/>
      <path class="cls-3" d="M618.64,108.28c-24.38,0-31.31-7.55-31.31-36.14v-15.72c0-28.71,6.93-36.13,31.31-36.13h2.23c24.38,0,31.31,7.42,31.31,36.13v15.72c0,28.59-6.93,36.14-31.31,36.14h-2.23ZM620.01,86c.87,0,1.73-.87,1.73-6.19v-31.06c0-5.32-.87-6.19-1.73-6.19h-.5c-.87,0-1.73.87-1.73,6.19v31.06c0,5.32.87,6.19,1.73,6.19h.5Z"/>
    </g>
  </g>
</svg>